<?xml version="1.0" standalone="no"?>
<!DOCTYPE svg PUBLIC "-//W3C//DTD SVG 1.1//EN" "http://www.w3.org/Graphics/SVG/1.1/DTD/svg11.dtd" >
<svg xmlns="http://www.w3.org/2000/svg">
<metadata>
This is a custom SVG webfont generated by Font Squirrel.
Copyright   : Copyright 200408 by Ole Schaefer published by primetype GmbH primetypecom for the primetype library All Rights Reserved Extraversion Notes Soft
Foundry     : by Ole Schaefer published by primetype GmbH primetypecom for the primetype library
</metadata>
<defs>
<font id="NotesEsaBold" horiz-adv-x="1075" >
<font-face units-per-em="2048" ascent="1651" descent="-397" />
<missing-glyph horiz-adv-x="573" />
<glyph unicode=" "  horiz-adv-x="573" />
<glyph unicode="&#x09;" horiz-adv-x="573" />
<glyph unicode="&#xa0;" horiz-adv-x="573" />
<glyph unicode="!" horiz-adv-x="522" d="M113 39v219q0 39 39 39h219q39 0 39 -39v-219q0 -39 -39 -39h-219q-39 0 -39 39zM123 520v895q0 39 39 39h198q39 0 39 -39v-895q0 -39 -39 -39h-198q-39 0 -39 39z" />
<glyph unicode="&#x22;" horiz-adv-x="880" d="M102 848v567q0 39 39 39h199q39 0 39 -39v-567q0 -39 -39 -39h-199q-39 0 -39 39zM502 848v567q0 39 39 39h198q39 0 39 -39v-567q0 -39 -39 -39h-198q-39 0 -39 39z" />
<glyph unicode="#" horiz-adv-x="1024" d="M41 346v158q0 39 39 39h74v368h-74q-39 0 -39 39v158q0 39 39 39h74v268q0 39 39 39h198q39 0 39 -39v-268h164v268q0 39 39 39h198q39 0 39 -39v-268h74q39 0 39 -39v-158q0 -39 -39 -39h-74v-368h74q39 0 39 -39v-158q0 -39 -39 -39h-74v-268q0 -39 -39 -39h-198 q-39 0 -39 39v268h-164v-268q0 -39 -39 -39h-198q-39 0 -39 39v268h-74q-39 0 -39 39zM430 543h164v368h-164v-368z" />
<glyph unicode="$" horiz-adv-x="1024" d="M72 63v187q0 37 41 31q231 -45 348 -45t166 38.5t49 128.5v41q0 61 -40 95t-120 61l-174 57q-260 84 -260 361v51q0 311 297 385v207q0 39 39 39h198q39 0 39 -39v-191q55 -4 114.5 -12t90.5 -14l33 -6q39 -6 39 -39v-180q0 -37 -39 -33q-207 33 -340 33 q-104 0 -149.5 -37t-45.5 -113v-31q0 -88 121 -129l174 -57q141 -47 220 -131t79 -256v-62q0 -184 -72.5 -281t-224.5 -128v-201q0 -39 -39 -39h-198q-39 0 -39 39v191q-135 12 -268 41q-39 5 -39 38z" />
<glyph unicode="%" horiz-adv-x="2191" d="M123 1034v39q0 184 112.5 293t303 109t303 -109t112.5 -293v-39q0 -184 -112.5 -292.5t-303 -108.5t-303 108.5t-112.5 292.5zM399 1024q0 -156 139.5 -156t139.5 156v59q0 156 -139.5 156t-139.5 -156v-59zM612 39l670 1376q20 39 45 39h223q16 0 26.5 -12t2.5 -27 l-670 -1376q-20 -39 -45 -39h-223q-16 0 -27 12q-6 7 -5 15q-1 6 3 12zM1237 381v39q0 184 112.5 292.5t303 108.5t303 -108.5t112.5 -292.5v-39q0 -184 -112.5 -292.5t-303 -108.5t-303 108.5t-112.5 292.5zM1513 371q0 -156 139.5 -156t139.5 156v59q0 156 -139.5 156 t-139.5 -156v-59z" />
<glyph unicode="&#x26;" horiz-adv-x="1398" d="M123 367v63q0 121 62.5 202t172.5 154q-143 156 -143 293v54q0 154 106.5 248t288.5 94q188 0 292 -93.5t104 -248.5v-43q0 -104 -62.5 -187.5t-179.5 -167.5l176 -196q12 61 12 137v125q0 39 39 39h199q39 0 39 -39v-125q0 -209 -82 -363l242 -264q10 -10 10 -22 q0 -27 -31 -27h-270q-25 0 -62 37l-63 69q-168 -127 -381 -126q-225 0 -347 97t-122 290zM399 387q0 -162 193 -162q127 0 213 68l-289 321q-117 -90 -117 -184v-43zM492 1090q0 -45 26.5 -83t87.5 -104q127 104 127 197v18q0 47 -32.5 79t-90.5 32q-59 0 -88.5 -32 t-29.5 -79v-28z" />
<glyph unicode="'" horiz-adv-x="481" d="M102 848v567q0 39 39 39h199q39 0 39 -39v-567q0 -39 -39 -39h-199q-39 0 -39 39z" />
<glyph unicode="(" horiz-adv-x="665" d="M123 225v1004q0 254 118.5 372.5t356.5 118.5h12q35 0 35 -34v-152q0 -39 -35 -39h-16q-98 0 -146.5 -62.5t-48.5 -203.5v-1004q0 -141 48.5 -203.5t146.5 -62.5h16q35 0 35 -39v-151q0 -35 -35 -35h-12q-238 0 -356.5 118.5t-118.5 372.5z" />
<glyph unicode=")" horiz-adv-x="665" d="M20 -80q0 39 35 39h17q98 0 146 62.5t48 203.5v1004q0 141 -48 203.5t-146 62.5h-17q-35 0 -35 39v152q0 35 35 34h13q238 0 356.5 -118.5t118.5 -372.5v-1004q0 -254 -119 -372.5t-356 -118.5h-13q-35 0 -35 35v151z" />
<glyph unicode="*" horiz-adv-x="1097" d="M123 1149l92 141q23 35 53 15l160 -99v209q0 39 39 39h168q39 0 39 -39v-209l160 101q31 20 53 -15l90 -141q8 -11 7 -22q0 -17 -21 -31l-224 -142l179 -194q23 -27 -5 -53l-122 -115q-12 -12 -26 -12q-15 0 -30 16l-184 201l-189 -203q-16 -16 -31 -16q-13 0 -24 12 l-123 117q-29 29 -4 53l180 194l-223 140q-22 14 -22 31q0 11 8 22z" />
<glyph unicode="+" d="M102 633v168q0 39 39 39h269v288q0 39 39 39h178q39 0 39 -39v-288h268q39 0 39 -39v-168q0 -39 -39 -39h-268v-289q0 -39 -39 -39h-178q-39 0 -39 39v289h-269q-39 0 -39 39z" />
<glyph unicode="," horiz-adv-x="501" d="M102 39v219q0 39 39 39h219q39 0 39 -39v-238l-96 -350q-10 -39 -43 -39h-102q-39 0 -33 37l59 332h-43q-39 0 -39 39z" />
<glyph unicode="-" horiz-adv-x="716" d="M102 633v168q0 39 39 39h434q39 0 39 -39v-168q0 -39 -39 -39h-434q-39 0 -39 39z" />
<glyph unicode="." horiz-adv-x="501" d="M102 39v219q0 39 39 39h219q39 0 39 -39v-219q0 -39 -39 -39h-219q-39 0 -39 39z" />
<glyph unicode="/" horiz-adv-x="870" d="M94 43l398 1374q10 37 43 37h210q16 0 26 -13q6 -9 6 -20q0 -5 -1 -10l-397 -1374q-10 -37 -43 -37h-211q-16 0 -26 13q-6 9 -6 20q0 5 1 10z" />
<glyph unicode="0" horiz-adv-x="1024" d="M72 451v553q0 471 440 471t440 -471v-553q0 -471 -440 -471t-440 471zM348 461q0 -115 37 -170t127 -55t127 55t37 170v532q0 115 -37 170.5t-127 55.5t-127 -55.5t-37 -170.5v-532z" />
<glyph unicode="1" horiz-adv-x="1024" d="M92 1137v186q0 37 37 47l301 84h227q39 0 39 -39v-1159h228q39 0 39 -39v-178q0 -39 -39 -39h-772q-39 0 -39 39v178q0 39 39 39h268v913l-289 -63q-39 -6 -39 31z" />
<glyph unicode="2" horiz-adv-x="1024" d="M82 39v283q0 121 42 212t106.5 141t138 93t138 70.5t106.5 70.5t42 99v71q0 139 -184 140q-55 0 -142 -8.5t-149 -16.5l-59 -8q-39 -4 -39 31v178q0 39 39 43q203 37 354 37q457 0 457 -396v-71q0 -125 -59.5 -211t-143.5 -131l-168 -86q-84 -41 -143.5 -104.5 t-59.5 -156.5v-63h535q39 0 39 -39v-178q0 -39 -39 -39h-772q-39 0 -39 39z" />
<glyph unicode="3" horiz-adv-x="1024" d="M61 59v183q0 35 39 30q217 -37 346 -36q209 0 209 155v76q0 84 -54 120t-163 36h-215q-39 0 -39 39v178q0 39 39 39h174q117 0 167 38.5t50 124.5v43q0 70 -41 102t-145 32l-328 -35q-39 -4 -39 30v181q0 35 39 39q174 41 342 41q219 0 334 -84t115 -287v-55 q0 -188 -156 -281q197 -86 197 -305v-88q0 -395 -479 -395l-353 40q-39 4 -39 39z" />
<glyph unicode="4" horiz-adv-x="1024" d="M20 315v217l238 885q10 37 43 37h277q16 0 25 -13.5t5 -29.5l-270 -879h276v453q0 39 39 39h199q39 0 39 -39v-453h84q39 0 39 -38v-179q0 -39 -39 -39h-84v-237q0 -39 -39 -39h-199q-39 0 -39 39v237h-555q-39 0 -39 39z" />
<glyph unicode="5" horiz-adv-x="1024" d="M82 600v815q0 39 39 39h792q39 0 39 -39v-178q0 -39 -39 -39h-555v-332q109 63 232 64q362 0 362 -389v-135q0 -231 -122.5 -328.5t-358.5 -97.5l-350 40q-39 4 -39 41v181q0 35 39 30q213 -37 346 -36q121 0 165 46t44 144v111q0 78 -32 107.5t-97 29.5q-23 0 -44.5 -3 t-43 -11.5l-35.5 -14.5t-36 -20l-31 -21l-32 -22q-24 -16 -28 -21h-176q-39 0 -39 39z" />
<glyph unicode="6" horiz-adv-x="1024" d="M72 410v532q0 264 136 398.5t376 134.5l268 -27q39 -2 39 -43v-176q0 -35 -39 -33q-172 23 -258 23q-246 0 -246 -236v-117q106 63 244 64q360 0 360 -385v-135q0 -205 -111.5 -317.5t-328.5 -112.5q-213 0 -326.5 111.5t-113.5 318.5zM348 416q0 -180 164 -180t164 180 v114q0 143 -144 144q-74 0 -184 -58v-200z" />
<glyph unicode="7" horiz-adv-x="1024" d="M51 1237v178q0 39 39 39h834q39 0 39 -39v-217l-453 -1161q-14 -37 -43 -37h-268q-16 0 -23.5 14.5t-1.5 30.5l477 1153h-561q-39 0 -39 39z" />
<glyph unicode="8" horiz-adv-x="1024" d="M51 391v53q0 223 176 318q-156 86 -155 289v45q0 188 120.5 283.5t319.5 95.5t319.5 -95.5t120.5 -283.5v-45q0 -203 -155 -289q176 -94 176 -318v-53q0 -205 -124 -308t-337 -103t-337 103t-124 308zM328 418q0 -86 49 -134t135 -48t135 48t49 134v33q0 184 -184 184 t-184 -184v-33zM348 1049q0 -70 40 -114t124 -44t124 44t40 114v14q0 70 -39 113t-125 43t-125 -43t-39 -113v-14z" />
<glyph unicode="9" horiz-adv-x="1024" d="M72 934v110q0 205 111.5 318t328.5 113q219 0 329.5 -113t110.5 -318v-552q0 -270 -125 -391t-366 -121l-268 26q-39 8 -39 39v180q0 35 39 33q172 -23 258 -22q121 0 173 62t52 183v125q-109 -61 -238 -61q-188 0 -277 103.5t-89 285.5zM348 950q0 -150 144 -149 q70 0 184 47v190q0 180 -164 180.5t-164 -180.5v-88z" />
<glyph unicode=":" horiz-adv-x="501" d="M102 39v219q0 39 39 39h219q39 0 39 -39v-219q0 -39 -39 -39h-219q-39 0 -39 39zM102 766v219q0 39 39 39h219q39 0 39 -39v-219q0 -39 -39 -39h-219q-39 0 -39 39z" />
<glyph unicode=";" horiz-adv-x="501" d="M102 39v219q0 39 39 39h219q39 0 39 -39v-238l-96 -350q-10 -39 -43 -39h-102q-39 0 -33 37l59 332h-43q-39 0 -39 39zM102 766v219q0 39 39 39h219q39 0 39 -39v-219q0 -39 -39 -39h-219q-39 0 -39 39z" />
<glyph unicode="&#x3c;" d="M102 627v180q0 31 37 49l793 354q7 4 13 4q7 0 14 -5q13 -9 14 -25v-205q0 -27 -39 -43l-531 -219l531 -219q39 -16 39 -43v-205q0 -16 -14 -26q-7 -5 -14 -5t-13 4l-793 355q-37 18 -37 49z" />
<glyph unicode="=" d="M102 387v168q0 39 39 39h793q39 0 39 -39v-168q0 -39 -39 -39h-793q-39 0 -39 39zM102 879v168q0 39 39 38h793q39 0 39 -38v-168q0 -39 -39 -39h-793q-39 0 -39 39z" />
<glyph unicode="&#x3e;" d="M102 250v205q0 27 39 43l531 219l-531 219q-39 16 -39 43v205q0 16 14 25q7 5 14 5t13 -4l793 -354q37 -18 37 -49v-180q0 -31 -37 -49l-793 -355q-7 -4 -13 -4q-7 0 -14 5q-14 10 -14 26z" />
<glyph unicode="?" horiz-adv-x="931" d="M82 1217v180q0 35 39 39q162 39 313 39q395 0 395 -332v-31q0 -184 -131 -291l-49 -39q-39 -33 -56.5 -50t-33.5 -54t-16 -90v-68q0 -39 -39 -39h-199q-39 0 -39 39v68q0 141 34 215t110 129l53 39q2 2 14 10t15.5 11l13.5 11.5t13 11.5l10.5 11t10.5 14.5l7 15.5t5 18 t1 20v20q0 104 -152 105q-47 0 -117.5 -8.5t-115.5 -16.5l-47 -8q-39 -4 -39 31zM256 39v219q0 39 39 39h219q39 0 39 -39v-219q0 -39 -39 -39h-219q-39 0 -39 39z" />
<glyph unicode="@" horiz-adv-x="2048" d="M123 471v82q0 434 231.5 678t669.5 244t669.5 -221.5t231.5 -598.5v-82q0 -299 -128 -436t-347 -137q-199 0 -281 137q-150 -117 -301 -117q-145 0 -225 84t-80 228q0 51 8 98l45 246q33 178 135.5 263t301.5 85q82 0 182 -18.5t162 -34.5l59 -19q35 -10 29 -47l-80 -454 q-8 -57 -8 -86q0 -119 78 -119q70 0 111.5 83t41.5 244v82q0 553 -604 553q-317 0 -460.5 -178t-143.5 -477v-82q0 -129 31.5 -235.5t99 -194.5t188.5 -136t285 -48h299q39 0 39 -39v-189q0 -39 -39 -39h-299q-442 0 -671.5 225.5t-229.5 655.5zM844 377q0 -111 100 -111 q74 0 178 47q0 6 -1 16.5t-1 14.5q0 61 13 127l51 289q-92 18 -129 18q-82 0 -121 -38t-51 -115l-33 -185q-6 -34 -6 -63z" />
<glyph unicode="A" horiz-adv-x="1239" d="M33 41l405 1374q10 39 47 39h269q37 0 47 -39l405 -1374q1 -5 2 -11q0 -10 -6 -18q-8 -12 -24 -12h-224q-33 0 -43 39l-57 207h-469l-57 -207q-10 -39 -43 -39h-224q-16 0 -24 12q-5 8 -6 18q1 6 2 11zM457 502h325l-161 590z" />
<glyph unicode="B" horiz-adv-x="1228" d="M123 39v1376q0 39 39 39h452q471 0 471 -399q0 -213 -167 -307q209 -88 208 -338q0 -217 -119.5 -313.5t-351.5 -96.5h-493q-39 0 -39 39zM399 860h195q113 0 164 41t51 133q0 98 -52 136t-163 38h-195v-348zM399 246h236q109 0 162 42t53 142q0 102 -55.5 143t-159.5 41 h-236v-368z" />
<glyph unicode="C" horiz-adv-x="972" d="M123 512v430q0 256 129 394.5t373 138.5l227 -23q39 -4 39 -41v-182q0 -37 -41 -33q-133 16 -225 16q-225 0 -226 -290v-390q0 -139 52.5 -214.5t183.5 -75.5q41 0 95 4t89 8l33 6q39 4 39 -33v-184q0 -37 -39 -41q-119 -23 -227 -22q-244 0 -373 138t-129 394z" />
<glyph unicode="D" horiz-adv-x="1249" d="M123 39v1376q0 39 39 39h463q244 0 372.5 -138t128.5 -394v-390q0 -256 -129 -394t-372 -138h-463q-39 0 -39 39zM399 256h226q225 0 225 297v348q0 297 -225 297h-226v-942z" />
<glyph unicode="E" horiz-adv-x="1034" d="M123 39v1376q0 39 39 39h751q39 0 39 -39v-178q0 -39 -39 -39h-514v-328h473q39 0 39 -39v-178q0 -39 -39 -39h-473v-358h514q39 0 39 -39v-178q0 -39 -39 -39h-751q-39 0 -39 39z" />
<glyph unicode="F" horiz-adv-x="1034" d="M123 39v1376q0 39 39 39h751q39 0 39 -39v-178q0 -39 -39 -39h-514v-328h473q39 0 39 -39v-178q0 -39 -39 -39h-473v-575q0 -39 -39 -39h-198q-39 0 -39 39z" />
<glyph unicode="G" horiz-adv-x="1249" d="M123 512v389q0 276 139 425t404 149q98 0 193 -15.5t140 -29.5l48 -17q39 -6 38 -41v-174q0 -39 -41 -33q-231 53 -368 54q-276 0 -277 -318v-369q0 -297 234 -296q53 0 107.5 9t82.5 17l27 10v301h-207q-39 0 -39 39v179q0 39 39 38h444q39 0 39 -38v-699 q-25 -12 -69.5 -30.5t-175.5 -50t-256 -31.5q-502 0 -502 532z" />
<glyph unicode="H" horiz-adv-x="1249" d="M123 39v1376q0 39 39 39h198q39 0 39 -39v-545h451v545q0 39 39 39h198q39 0 39 -39v-1376q0 -39 -39 -39h-198q-39 0 -39 39v575h-451v-575q0 -39 -39 -39h-198q-39 0 -39 39z" />
<glyph unicode="I" horiz-adv-x="911" d="M61 39v106q0 39 39 39h217v1086h-217q-39 0 -39 39v106q0 39 39 39h711q39 0 39 -39v-106q0 -39 -39 -39h-217v-1086h217q39 0 39 -39v-106q0 -39 -39 -39h-711q-39 0 -39 39z" />
<glyph unicode="J" horiz-adv-x="768" d="M82 39v168q0 39 39 39h43q109 0 157 53t48 172v944q0 39 39 39h198q39 0 39 -39v-964q0 -451 -430 -451h-94q-39 0 -39 39z" />
<glyph unicode="K" horiz-adv-x="1126" d="M123 39v1376q0 39 39 39h198q39 0 39 -39v-1376q0 -39 -39 -39h-198q-39 0 -39 39zM401 758l375 657q23 39 51 39h228q18 0 27.5 -12t0.5 -27l-374 -657l397 -719q4 -6 4 -12q0 -7 -6 -15q-10 -12 -27 -12h-229q-33 0 -51 39z" />
<glyph unicode="L" horiz-adv-x="1034" d="M123 39v1376q0 39 39 39h198q39 0 39 -39v-1159h514q39 0 39 -39v-178q0 -39 -39 -39h-751q-39 0 -39 39z" />
<glyph unicode="M" horiz-adv-x="1566" d="M123 39v1376q0 39 39 39h225q33 0 49 -39l348 -856l346 856q16 39 50 39h225q39 0 39 -39v-1376q0 -39 -39 -39h-199q-39 0 -39 39v840l-231 -594q-16 -39 -47 -39h-211q-31 0 -47 39l-232 594v-840q0 -39 -39 -39h-198q-39 0 -39 39z" />
<glyph unicode="N" horiz-adv-x="1249" d="M123 39v1376q0 39 39 39h207q33 0 51 -39l430 -829v829q0 39 39 39h198q39 0 39 -39v-1376q0 -39 -39 -39h-206q-33 0 -52 39l-430 829v-829q0 -39 -39 -39h-198q-39 0 -39 39z" />
<glyph unicode="O" horiz-adv-x="1249" d="M123 512v430q0 256 129 394.5t372.5 138.5t372.5 -138.5t129 -394.5v-430q0 -256 -129 -394t-372.5 -138t-372.5 138t-129 394zM399 532q0 -297 225.5 -296.5t225.5 296.5v390q0 297 -225.5 297t-225.5 -297v-390z" />
<glyph unicode="P" horiz-adv-x="1187" d="M123 39v1376q0 39 39 39h442q233 0 357 -103.5t124 -337t-123.5 -337t-357.5 -103.5h-205v-534q0 -39 -39 -39h-198q-39 0 -39 39zM399 819h185q115 0 170 45t55 149.5t-55.5 149.5t-169.5 45h-185v-389z" />
<glyph unicode="Q" horiz-adv-x="1249" d="M123 512v430q0 256 129 394.5t372.5 138.5t372.5 -138.5t129 -394.5v-430q0 -219 -94 -352t-274 -168v-29q0 -117 104 -117q12 0 123 13q39 4 39 -29v-184q0 -35 -39 -41q-104 -14 -201 -15q-303 0 -303 351v53q-176 37 -267 170t-91 348zM399 532q0 -297 225.5 -296.5 t225.5 296.5v390q0 297 -225.5 297t-225.5 -297v-390z" />
<glyph unicode="R" horiz-adv-x="1187" d="M123 39v1376q0 39 39 39h452q471 0 471 -440q0 -344 -292 -420l329 -553q6 -8 6 -16q0 -6 -4 -12q-8 -13 -24 -13h-234q-23 0 -49 39l-317 534h-101v-534q0 -39 -39 -39h-198q-39 0 -39 39zM399 819h179q117 0 174 44t57 151q0 109 -54.5 151.5t-170.5 42.5h-185v-389z " />
<glyph unicode="S" horiz-adv-x="1095" d="M102 63v187q0 37 41 31q231 -45 348 -45t166.5 38.5t49.5 128.5v41q0 61 -40 95t-120 61l-174 57q-260 84 -260 361v51q0 207 130 306.5t337 99.5l344 -37q39 -4 39 -39v-180q0 -37 -39 -33q-207 33 -340 33q-104 0 -149.5 -37t-45.5 -113v-31q0 -88 121 -129l174 -57 q141 -47 220 -131t79 -256v-62q0 -233 -114.5 -328t-360.5 -95q-72 0 -164 11t-147 21l-56 13q-39 3 -39 38z" />
<glyph unicode="T" horiz-adv-x="1126" d="M61 1237v178q0 39 39 39h926q39 0 39 -39v-178q0 -39 -39 -39h-324v-1159q0 -39 -38 -39h-199q-39 0 -39 39v1159h-326q-39 0 -39 39z" />
<glyph unicode="U" horiz-adv-x="1249" d="M123 532v883q0 39 39 39h198q39 0 39 -39v-883q0 -297 225.5 -296.5t225.5 296.5v883q0 39 39 39h198q39 0 39 -39v-883q0 -553 -501.5 -553t-501.5 553z" />
<glyph unicode="V" horiz-adv-x="1187" d="M33 1411q-1 7 -2 13q0 10 5 18q7 12 25 12h228q29 0 39 -39l266 -1022l266 1022q10 39 39 39h227q18 0 26 -12q5 -8 5 -18q0 -6 -2 -13l-377 -1372q-10 -39 -47 -39h-274q-37 0 -47 39z" />
<glyph unicode="W" horiz-adv-x="1914" d="M49 1411q-1 8 -1 14q0 29 30 29h229q33 0 39 -39l201 -1022l252 1022q10 39 45 39h227q35 0 45 -39l252 -1022l201 1022q6 39 39 39h229q30 0 30 -29q0 -6 -1 -14l-291 -1372q-6 -39 -47 -39h-273q-37 0 -47 39l-250 915l-251 -915q-10 -39 -48 -39h-272q-41 0 -47 39z " />
<glyph unicode="X" horiz-adv-x="1208" d="M22 14q-3 7 -4 14q0 8 5 15l387 700l-367 668q-8 14 -1 28.5t26 14.5h249q31 0 52 -39l235 -438l236 438q20 39 51 39h250q18 0 25.5 -14.5t-1.5 -28.5l-366 -668l387 -700q4 -8 4 -15t-3 -14q-7 -14 -26 -14h-250q-31 0 -51 39l-256 471l-256 -471q-20 -39 -51 -39h-250 q-18 0 -25 14z" />
<glyph unicode="Y" horiz-adv-x="1177" d="M39 1411q-3 7 -3 14q0 9 5 16q8 13 27 13h235q23 0 39 -39l248 -627l246 627q16 39 38 39h236q18 0 27 -13q5 -8 4 -16q0 -6 -2 -14l-412 -950v-422q0 -39 -39 -39h-199q-39 0 -38 39v422z" />
<glyph unicode="Z" horiz-adv-x="993" d="M82 39v217l498 942h-459q-39 0 -39 39v178q0 39 39 39h751q39 0 39 -39v-217l-497 -942h458q39 0 39 -39v-178q0 -39 -39 -39h-751q-39 0 -39 39z" />
<glyph unicode="[" horiz-adv-x="665" d="M123 -227v1908q0 39 39 39h444q39 0 39 -39v-147q0 -39 -39 -39h-207v-1536h207q39 0 39 -39v-147q0 -39 -39 -39h-444q-39 0 -39 39z" />
<glyph unicode="\" horiz-adv-x="870" d="M94 1411q-1 5 -1 10q0 11 6 20q9 13 26 13h211q33 0 43 -37l397 -1374q1 -5 1 -10q0 -11 -6 -20q-9 -13 -26 -13h-210q-33 0 -43 37z" />
<glyph unicode="]" horiz-adv-x="665" d="M20 -80q0 39 39 39h207v1536h-207q-39 0 -39 39v147q0 39 39 39h445q39 0 39 -39v-1908q0 -39 -39 -39h-445q-39 0 -39 39v147z" />
<glyph unicode="^" horiz-adv-x="1228" d="M127 860l342 557q25 37 47 37h197q23 0 47 -37l342 -557q4 -7 4 -13q0 -7 -5 -14q-9 -13 -26 -14h-201q-23 0 -49 39l-211 336l-211 -336q-27 -39 -49 -39h-200q-16 0 -26 14q-5 7 -5 14q0 6 4 13z" />
<glyph unicode="_" horiz-adv-x="1044" d="M0 -182q0 39 39 39h967q39 0 38 -39v-168q0 -39 -38 -39h-967q-39 0 -39 39v168z" />
<glyph unicode="`" horiz-adv-x="649" d="M100 1182q-3 6 -2 12q0 8 4 16l117 226q18 39 55 39h252q18 0 25 -15q2 -5 2 -11q0 -9 -6 -17l-164 -226q-31 -39 -55 -39h-203q-19 1 -25 15z" />
<glyph unicode="a" horiz-adv-x="1044" d="M92 297q0 156 96.5 236.5t272.5 80.5q104 0 184 -12v53q0 70 -36 101.5t-113 31.5q-49 0 -120 -9t-118 -17l-45 -8q-39 -4 -39 30v174q0 35 39 41q150 45 328 45q215 0 298 -94t83 -295v-616q0 -39 -39 -39h-178q-39 0 -39 39v14q-121 -74 -248 -73q-326 0 -326 317z M369 307q0 -102 116 -102q68 0 160 43v168h-139q-137 0 -137 -109z" />
<glyph unicode="b" d="M123 39v1376q0 39 39 39h198q39 0 39 -39v-430q109 59 215 59q168 0 253 -98t85 -270v-287q0 -180 -101 -284.5t-300 -104.5h-389q-39 0 -39 39zM399 236h131q145 0 146 163v246q0 154 -135 154q-57 0 -142 -35v-528z" />
<glyph unicode="c" horiz-adv-x="819" d="M123 389v246q0 205 107.5 307t308.5 102l180 -18q39 -2 39 -41v-166q0 -37 -39 -33q-90 12 -162 13q-88 0 -123 -44t-35 -130v-226q0 -88 36 -131t124 -43l160 13q39 4 39 -33v-166q0 -39 -39 -41q-98 -18 -180 -18q-201 0 -308.5 102t-107.5 307z" />
<glyph unicode="d" d="M123 348v328q0 172 85 270t253 98q106 0 215 -49v420q0 39 39 39h198q39 0 39 -39v-1376q0 -39 -39 -39h-178q-39 0 -39 39v12q-125 -72 -235 -71q-168 0 -253 98t-85 270zM399 379q0 -154 136 -154q57 0 141 35v512q-80 27 -141 27q-135 0 -136 -154v-266z" />
<glyph unicode="e" horiz-adv-x="1054" d="M113 475v86q0 221 110.5 352t315 131t304 -120.5t99.5 -313.5v-172q0 -39 -39 -39h-510q20 -168 201 -168l268 27q39 4 39 -33v-176q0 -37 -39 -41q-150 -29 -284 -28q-465 -1 -465 495zM389 598h297v29q0 92 -31.5 139t-111.5 47q-84 0 -118 -52t-36 -163z" />
<glyph unicode="f" horiz-adv-x="624" d="M20 827v158q0 39 39 39h105v117q0 180 88 257t219 77q39 0 73 -3.5t48 -5.5l14 -4q39 -6 39 -39v-174q0 -37 -39 -35q-43 4 -71 5q-94 0 -95 -91v-104h125q39 0 39 -39v-158q0 -39 -39 -39h-125v-749q0 -39 -39 -39h-198q-39 0 -39 39v749h-105q-39 0 -39 39z" />
<glyph unicode="g" d="M123 389v266q0 180 101.5 284.5t299.5 104.5q80 0 177.5 -12t154.5 -24l57 -15q39 -4 39 -39v-923q0 -246 -93 -343.5t-310 -97.5l-346 39q-39 4 -39 41v180q0 35 39 31q178 -35 299 -35q98 0 136 43t38 142v49q-109 -59 -215 -60q-168 0 -253 98.5t-85 270.5zM399 420 q0 -154 136 -154q57 0 141 35v483q-94 14 -131 15q-145 0 -146 -154v-225z" />
<glyph unicode="h" d="M123 39v1376q0 39 39 39h198q39 0 39 -39v-444q117 74 246 73q166 0 236.5 -90t70.5 -258v-657q0 -39 -39 -39h-198q-39 0 -39 39v616q0 133 -119 133q-68 0 -158 -43v-706q0 -39 -39 -39h-198q-39 0 -39 39z" />
<glyph unicode="i" horiz-adv-x="522" d="M123 39v946q0 39 39 39h198q39 0 39 -39v-946q0 -39 -39 -39h-198q-39 0 -39 39zM123 1217v198q0 39 39 39h198q39 0 39 -39v-198q0 -39 -39 -39h-198q-39 0 -39 39z" />
<glyph unicode="j" horiz-adv-x="522" d="M-41 -197q0 35 39 35q37 -2 55 -2q70 0 70 78v1071q0 39 39 39h198q39 0 39 -39v-1118q0 -147 -60 -212t-183 -65l-158 9q-39 6 -39 39v165zM123 1217v198q0 39 39 39h198q39 0 39 -39v-198q0 -39 -39 -39h-198q-39 0 -39 39z" />
<glyph unicode="k" horiz-adv-x="952" d="M123 39v1376q0 39 39 39h198q39 0 39 -39v-1376q0 -39 -39 -39h-198q-39 0 -39 39zM401 573l213 412q20 39 52 39h221q16 0 24.5 -12.5t-0.5 -26.5l-211 -405l236 -541q3 -7 3 -13q0 -7 -4 -14q-7 -12 -24 -12h-221q-35 0 -51 39z" />
<glyph unicode="l" horiz-adv-x="522" d="M123 39v1376q0 39 39 39h198q39 0 39 -39v-1376q0 -39 -39 -39h-198q-39 0 -39 39z" />
<glyph unicode="m" horiz-adv-x="1628" d="M123 39v946q0 39 39 39h178q39 0 39 -39v-29q125 88 266 88q178 0 254 -114q137 115 299 114q166 0 236.5 -90t70.5 -258v-657q0 -39 -39 -39h-198q-39 0 -39 39v616q0 133 -119 133q-68 0 -160 -51q0 -6 1 -19t1 -22v-657q0 -39 -39 -39h-198q-39 0 -39 39v616 q0 133 -119 133q-68 0 -158 -43v-706q0 -39 -39 -39h-198q-39 0 -39 39z" />
<glyph unicode="n" d="M123 39v946q0 39 39 39h178q39 0 39 -39v-29q125 88 266 88q166 0 236.5 -90t70.5 -258v-657q0 -39 -39 -39h-198q-39 0 -39 39v616q0 133 -119 133q-68 0 -158 -43v-706q0 -39 -39 -39h-198q-39 0 -39 39z" />
<glyph unicode="o" horiz-adv-x="1077" d="M123 389v246q0 205 107.5 307t308 102t308 -102t107.5 -307v-246q0 -205 -107.5 -307t-308 -102t-308 102t-107.5 307zM399 385q0 -164 139.5 -164t139.5 164v256q0 164 -139.5 164t-139.5 -164v-256z" />
<glyph unicode="p" d="M123 -350v1335q0 39 39 39h178q39 0 39 -39v-12q125 72 235 71q168 0 253 -98t85 -270v-287q0 -180 -101 -284.5t-300 -104.5q-47 0 -152 14v-364q0 -39 -39 -39h-198q-39 0 -39 39zM399 236h131q145 0 146 163v246q0 154 -135 154q-57 0 -142 -35v-528z" />
<glyph unicode="q" d="M123 348v307q0 180 101.5 284.5t299.5 104.5q80 0 177.5 -12t154.5 -24l57 -15q39 -4 39 -39v-1304q0 -39 -39 -39h-198q-39 0 -39 39v389q-109 -59 -215 -59q-168 0 -253 98t-85 270zM399 379q0 -154 136 -154q57 0 141 35v524q-94 14 -131 15q-145 0 -146 -154v-266z " />
<glyph unicode="r" horiz-adv-x="675" d="M123 39v946q0 39 39 39h178q39 0 39 -39v-78q53 137 186 137l45 -4q35 -2 35 -39v-237q0 -18 -8 -28.5t-25 -8.5q-12 2 -20 2q-113 0 -193 -121v-569q0 -39 -39 -39h-198q-39 0 -39 39z" />
<glyph unicode="s" horiz-adv-x="993" d="M92 68v170q0 39 39 32q209 -45 330 -45q86 0 119.5 18.5t33.5 57.5q0 37 -32.5 52.5t-100.5 23.5l-71 10q-59 8 -103.5 23.5t-95.5 47t-80 94t-29 150.5q0 176 110 259t296 83l303 -34q39 -8 39 -39v-168q0 -35 -39 -33q-168 29 -289 29q-80 0 -111.5 -16.5t-31.5 -55.5 q0 -23 18.5 -37t39 -18t61.5 -10l86 -13q61 -8 108 -25.5t96.5 -50t76 -94t26.5 -147.5q0 -193 -100.5 -272.5t-305.5 -79.5q-174 0 -354 49q-39 8 -39 39z" />
<glyph unicode="t" horiz-adv-x="727" d="M20 827v158q0 39 39 39h105v227q0 39 39 39h198q39 0 39 -39v-227h228q39 0 39 -39v-158q0 -39 -39 -39h-228v-436q0 -117 105 -116l123 12q39 4 39 -29v-184q0 -35 -39 -41q-104 -14 -201 -14q-303 0 -303 337v471h-105q-39 0 -39 39z" />
<glyph unicode="u" d="M123 328v657q0 39 39 39h198q39 0 39 -39v-616q0 -133 119 -133q68 0 158 43v706q0 39 39 39h198q39 0 39 -39v-946q0 -39 -39 -39h-178q-39 0 -39 39v29q-125 -88 -266 -88q-166 0 -236.5 90t-70.5 258z" />
<glyph unicode="v" horiz-adv-x="1024" d="M33 983q-1 5 -1 9q0 11 7 20q10 12 27 12h217q35 0 45 -37l184 -655l184 655q10 37 45 37h217q16 0 27 -12q7 -9 7 -20q0 -4 -1 -9l-282 -944q-10 -39 -47 -39h-299q-37 0 -48 39z" />
<glyph unicode="w" horiz-adv-x="1587" d="M49 983q-1 5 -1 9q0 11 7 20q10 12 27 12h219q39 0 45 -39l125 -653l164 653q10 39 47 39h223q37 0 47 -39l164 -653l127 655q6 37 45 37h217q16 0 27 -12q7 -9 7 -20q0 -4 -1 -9l-209 -944q-6 -39 -47 -39h-295q-35 0 -45 39l-147 530l-150 -530q-10 -39 -47 -39h-295 q-39 0 -45 39z" />
<glyph unicode="x" horiz-adv-x="983" d="M23 12q-4 6 -4.5 13.5t4.5 15.5l270 487l-250 455q-8 16 0 28.5t25 12.5h254q29 0 47 -37l123 -237l122 237q18 37 48 37h253q16 0 24.5 -12.5t0.5 -28.5l-250 -455l271 -487q4 -8 4 -15.5t-4 -13.5q-8 -12 -25 -12h-256q-29 0 -47 37l-141 270l-142 -270 q-18 -37 -47 -37h-256q-16 0 -24 12z" />
<glyph unicode="y" horiz-adv-x="1024" d="M33 985q-1 5 -1 9q0 11 7 19q10 11 27 11h217q35 0 45 -35l174 -567l192 565q10 37 45 37h217q16 0 27 -12q7 -9 7 -20q0 -4 -1 -9l-454 -1335q-10 -37 -43 -37h-222q-16 0 -25 12t-5 29l112 332z" />
<glyph unicode="z" horiz-adv-x="952" d="M82 39v207l387 532h-348q-39 0 -39 39v168q0 39 39 39h710q39 0 39 -39v-207l-387 -532h348q39 0 39 -39v-168q0 -39 -39 -39h-710q-39 0 -39 39z" />
<glyph unicode="{" horiz-adv-x="727" d="M20 653v148q0 39 35 39h13q66 0 91 41t25 123v327q0 207 98.5 298t321.5 91h64q39 0 39 -39v-147q0 -39 -39 -39h-64q-82 0 -112.5 -41t-30.5 -123v-368q0 -197 -119 -236q119 -37 119 -235v-369q0 -82 30.5 -123t112.5 -41h64q39 0 39 -39v-147q0 -39 -39 -39h-64 q-221 0 -320.5 92t-99.5 297v328q0 84 -24.5 123.5t-91.5 39.5h-13q-35 0 -35 39z" />
<glyph unicode="|" horiz-adv-x="522" d="M123 -166v1786q0 39 39 39h198q39 0 39 -39v-1786q0 -39 -39 -39h-198q-39 0 -39 39z" />
<glyph unicode="}" horiz-adv-x="727" d="M20 -80q0 39 39 39h64q82 0 112.5 41t30.5 123v369q0 197 119 235q-119 37 -119 236v368q0 82 -30.5 123t-112.5 41h-64q-39 0 -39 39v147q0 39 39 39h64q221 0 320.5 -92t99.5 -297v-327q0 -82 25.5 -123t90.5 -41h13q35 0 35 -39v-148q0 -39 -35 -39h-13 q-68 0 -92 -39.5t-24 -123.5v-328q0 -207 -98.5 -298t-321.5 -91h-64q-39 0 -39 39v147z" />
<glyph unicode="~" d="M102 612v168q0 31 37 45q86 45 189 45q74 0 216 -30.5t208 -30.5l182 39q39 8 39 -27v-168q0 -31 -37 -45q-86 -45 -188 -45q-74 0 -214.5 31t-209.5 31l-183 -39q-39 -9 -39 26z" />
<glyph unicode="&#xa1;" horiz-adv-x="522" d="M113 807v219q0 39 39 39h219q39 0 39 -39v-219q0 -39 -39 -39h-219q-39 0 -39 39zM123 -350v895q0 39 39 39h198q39 0 39 -39v-895q0 -39 -39 -39h-198q-39 0 -39 39z" />
<glyph unicode="&#xa2;" horiz-adv-x="1024" d="M174 399v228q0 324 266 397v207q0 39 39 39h199q39 0 39 -39v-193l94 -12q39 -6 39 -41v-166q0 -37 -39 -33q-102 12 -182 13q-178 0 -178 -183v-206q0 -184 180 -185l180 13q39 4 39 -33v-166q0 -35 -39 -41q-25 -4 -94 -12v-193q0 -39 -39 -39h-199q-39 0 -39 39v209 q-266 75 -266 397z" />
<glyph unicode="&#xa3;" horiz-adv-x="1024" d="M14 664l15 157q4 39 39 39h116v135q0 479 457 480q72 0 142.5 -10.5t105.5 -20.5l35 -10q39 -6 39 -45v-179q0 -33 -39 -28q-154 37 -279 37q-61 0 -100 -18.5t-56.5 -54.5t-22.5 -69t-5 -82v-135h403q37 0 33 -39l-14 -157q-4 -39 -39 -39h-383v-369h463q39 0 39 -39 v-178q0 -39 -39 -39h-701q-39 0 -39 39v586h-137q-37 0 -33 39z" />
<glyph unicode="&#xa4;" horiz-adv-x="1024" d="M39 362q-13 13 -13 27t13 29l102 102q-45 86 -45 197q0 115 45 196l-102 103q-13 14 -13 28t13 27l119 117q13 14 27 14t28 -14l113 -113q86 33 186 33q98 0 184 -33l113 113q13 14 27 14t28 -14l119 -117q14 -13 14 -27t-14 -28l-102 -103q47 -84 47 -196.5t-47 -196.5 l102 -102q14 -14 14 -28t-14 -28l-119 -116q-14 -14 -28 -14.5t-27 14.5l-113 112q-86 -33 -184 -32q-100 0 -186 32l-113 -112q-14 -14 -28 -14.5t-27 14.5zM373 716.5q0 -155.5 139 -155.5t139 155.5t-139 155.5t-139 -155.5z" />
<glyph unicode="&#xa5;" horiz-adv-x="1024" d="M37 1411q-3 10 -3 18q0 25 29 25h238q29 0 39 -39l174 -627l170 627q10 39 39 39h235q18 0 26 -12q5 -8 5 -18q0 -6 -2 -13l-162 -520h117q39 0 39 -39v-158q0 -39 -39 -39h-190l-39 -123h229q39 0 39 -38v-158q0 -39 -39 -39h-291v-258q0 -39 -39 -39h-198q-39 0 -39 39 v258h-293q-39 0 -39 39v158q0 39 39 38h231l-39 123h-192q-39 0 -39 39v158q0 39 39 39h119z" />
<glyph unicode="&#xa6;" horiz-adv-x="522" d="M123 -166v762q0 39 39 39h198q39 0 39 -39v-762q0 -39 -39 -39h-198q-39 0 -39 39zM123 858v762q0 39 39 39h198q39 0 39 -39v-762q0 -39 -39 -39h-198q-39 0 -39 39z" />
<glyph unicode="&#xa7;" horiz-adv-x="1034" d="M113 33q0 39 39 33q219 -45 329 -46q154 0 154 82v29q0 18 -8.5 30.5t-33 23t-37.5 14.5t-54 14l-72 18q-55 14 -81.5 22.5t-78 34t-77 56.5t-48 85t-22.5 126v41q0 158 129 242q-129 78 -129 254v41q0 176 109.5 259t295.5 83l303 -35q39 -8 39 -39v-168q0 -35 -39 -33 q-162 29 -288 29q-143 0 -144 -78v-29q0 -20 17.5 -34.5t32 -19.5t53.5 -13q10 -2 16 -4l86 -21q66 -16 109 -32.5t94 -51.5t77.5 -95t26.5 -146v-64q0 -166 -108 -231q109 -78 108 -242v-41q0 -193 -100 -272.5t-305 -79.5q-178 0 -354 49q-39 8 -39 39v170zM399 614 q0 -82 119 -110l53 -12q63 25 64 98v61q0 47 -34 70.5t-99 38.5l-29 6q-74 -33 -74 -104v-48z" />
<glyph unicode="&#xa8;" horiz-adv-x="931" d="M102 1217v198q0 39 39 39h199q39 0 39 -39v-198q0 -39 -39 -39h-199q-39 0 -39 39zM553 1217v198q0 39 39 39h199q39 0 38 -39v-198q0 -39 -38 -39h-199q-39 0 -39 39z" />
<glyph unicode="&#xa9;" horiz-adv-x="1638" d="M123 645v164q0 328 190.5 497t506 169t506 -169t190.5 -497v-164q0 -328 -190.5 -496.5t-506 -168.5t-506 168.5t-190.5 496.5zM420 655q0 -410 399.5 -409.5t399.5 409.5v144q0 410 -399.5 409.5t-399.5 -409.5v-144zM512 707v41q0 174 92 271t266 97q35 0 74 -4t60 -8 l22 -4q39 -8 39 -39v-119q0 -35 -39 -33q-66 12 -145 13q-154 0 -154 -174v-41q0 -174 154 -175l145 13q39 2 39 -33v-119q0 -31 -39 -39q-80 -16 -156 -16q-174 0 -266 97.5t-92 271.5z" />
<glyph unicode="&#xaa;" horiz-adv-x="1064" d="M113 727q0 156 96 236.5t272 80.5q104 0 185 -12v53q0 70 -36 102t-114 32q-49 0 -119.5 -9.5t-117.5 -17.5l-46 -8q-39 -4 -38 30v175q0 35 38 41q150 45 328 45q215 0 298 -94.5t83 -295.5v-616q0 -39 -39 -39h-178q-39 0 -39 39v14q-121 -74 -248 -73q-325 0 -325 317 zM133 39v168q0 39 39 39h731q39 0 39 -39v-168q0 -39 -39 -39h-731q-39 0 -39 39zM389 737q0 -102 117 -102q68 0 160 43v168h-140q-137 0 -137 -109z" />
<glyph unicode="&#xab;" horiz-adv-x="1146" d="M129 627q-13 26 -13 50t13 48l156 281q18 39 49 38h221q16 0 25.5 -12t1.5 -26l-183 -330l183 -330q8 -14 -1.5 -26.5t-25.5 -12.5h-221q-31 0 -49 39zM569 627q-13 26 -13 50t13 48l156 281q20 39 49 38h221q16 0 26 -12q5 -7 5 -13t-4 -13l-182 -330l182 -330 q4 -7 4 -13q0 -7 -5 -14q-9 -12 -26 -12h-221q-29 0 -49 39z" />
<glyph unicode="&#xac;" d="M102 633v168q0 39 39 39h793q39 0 39 -39v-496q0 -39 -39 -39h-178q-39 0 -39 39v289h-576q-39 0 -39 39z" />
<glyph unicode="&#xad;" horiz-adv-x="716" d="M102 633v168q0 39 39 39h434q39 0 39 -39v-168q0 -39 -39 -39h-434q-39 0 -39 39z" />
<glyph unicode="&#xae;" horiz-adv-x="1638" d="M123 645v164q0 328 190.5 497t506 169t506 -169t190.5 -497v-164q0 -328 -190.5 -496.5t-506 -168.5t-506 168.5t-190.5 496.5zM420 655q0 -410 399.5 -409.5t399.5 409.5v144q0 410 -399.5 409.5t-399.5 -409.5v-144zM573 397v660q0 39 39 39h222q133 0 212.5 -49.5 t79.5 -186.5q0 -184 -168 -223l144 -238q10 -14 2 -27.5t-25 -13.5h-129q-27 0 -51 37l-137 230h-14v-228q0 -39 -39 -39h-97q-39 0 -39 39zM748 778h86q57 0 87.5 16.5t30.5 65.5q0 51 -29.5 66.5t-88.5 15.5h-86v-164z" />
<glyph unicode="&#xaf;" horiz-adv-x="727" d="M102 1257v158q0 39 39 39h445q39 0 39 -39v-158q0 -39 -39 -38h-445q-39 -1 -39 38z" />
<glyph unicode="&#xb0;" horiz-adv-x="1077" d="M123 1014v59q0 184 112.5 293t303 109t303 -109t112.5 -293v-59q0 -184 -112.5 -293t-303 -109t-303 109t-112.5 293zM399 1004q0 -156 139.5 -156t139.5 156v79q0 156 -139.5 156t-139.5 -156v-79z" />
<glyph unicode="&#xb1;" d="M102 39v168q0 39 39 39h793q39 0 39 -39v-168q0 -39 -39 -39h-793q-39 0 -39 39zM102 653v168q0 39 39 39h269v268q0 39 39 39h178q39 0 39 -39v-268h268q39 0 39 -39v-168q0 -39 -39 -39h-268v-268q0 -39 -39 -39h-178q-39 0 -39 39v268h-269q-39 0 -39 39z" />
<glyph unicode="&#xb2;" horiz-adv-x="696" d="M49 1264v141q0 39 39 43q137 27 242 27q319 0 319 -256v-48q0 -74 -35.5 -128t-86 -82.5t-100.5 -50t-86 -45t-36 -54.5v-8h305q39 0 39 -39v-143q0 -39 -39 -39h-522q-39 0 -39 39v176q0 84 36 145.5t86 91t100.5 50t86 41t35.5 46.5v35q0 47 -76 47q-35 0 -92 -5 t-98 -11l-39 -4q-39 -6 -39 31z" />
<glyph unicode="&#xb3;" horiz-adv-x="696" d="M33 627v145q0 37 39 31q150 -20 227 -21q90 0 90 66v18q0 53 -94 54h-150q-39 0 -39 38v144q0 39 39 39h134q86 0 86 49v20q0 43 -78 43l-215 -20q-39 -4 -39 33v143q0 35 39 39q123 27 235 27q147 0 230.5 -51.5t83.5 -182.5v-47q0 -94 -80 -150q104 -53 104 -170v-67 q0 -246 -332 -246q-45 0 -105.5 6t-96.5 15l-39 6q-39 4 -39 39z" />
<glyph unicode="&#xb4;" horiz-adv-x="649" d="M98 1460q6 14 25 15h252q35 0 55 -39l117 -226q5 -8 4 -16q0 -6 -2 -12q-6 -14 -25 -15h-202q-25 0 -56 39l-164 226q-6 9 -6 17q0 6 2 11z" />
<glyph unicode="&#xb5;" d="M123 -350v1335q0 39 39 39h198q39 0 39 -39v-616q0 -133 119 -133q68 0 158 43v706q0 39 39 39h198q39 0 39 -39v-946q0 -39 -39 -39h-178q-39 0 -39 39v29q-125 -88 -266 -88h-31v-330q0 -39 -39 -39h-198q-39 0 -39 39z" />
<glyph unicode="&#xb6;" horiz-adv-x="1402" d="M102 1013.5q0 440.5 492 440.5h268q39 0 39 -39v-1376q0 -39 -39 -39h-198q-39 0 -39 39v534h-31q-492 0 -492 440.5zM379 1013.5q0 -194.5 205 -194.5h41v389h-41q-205 0 -205 -194.5zM1004 39v1376q0 39 38 39h199q39 0 39 -39v-1376q0 -39 -39 -39h-199q-38 0 -38 39z " />
<glyph unicode="&#xb7;" horiz-adv-x="481" d="M102 633v198q0 39 39 39h199q39 0 39 -39v-198q0 -39 -39 -39h-199q-39 0 -39 39z" />
<glyph unicode="&#xb8;" horiz-adv-x="604" d="M102 -301q0 35 37 35h41q76 0 76 53q0 49 -70 49h-32q-35 0 -29 39l45 207h184l-30 -139h8q170 0 170 -179q0 -174 -211 -174l-150 15q-39 4 -39 39v55z" />
<glyph unicode="&#xb9;" horiz-adv-x="696" d="M61 1204v142q0 37 37 47l201 61h176q39 0 39 -39v-794q0 -39 -39 -39h-178q-39 0 -39 39v585l-158 -32q-39 -7 -39 30z" />
<glyph unicode="&#xba;" horiz-adv-x="1077" d="M123 819v246q0 205 107.5 307.5t308 102.5t308 -102.5t107.5 -307.5v-246q0 -205 -107.5 -307t-308 -102t-308 102t-107.5 307zM143 39v168q0 39 39 39h713q39 0 39 -39v-168q0 -39 -39 -39h-713q-39 0 -39 39zM399 815q0 -164 139.5 -164t139.5 164v256 q0 164 -139.5 164t-139.5 -164v-256z" />
<glyph unicode="&#xbb;" horiz-adv-x="1146" d="M125 346l182 330l-182 330q-4 7 -4 13q0 7 5 13q9 12 26 12h221q29 0 49 -38l156 -281q13 -24 13 -48.5t-13 -49.5l-156 -281q-20 -39 -49 -39h-221q-16 0 -26 12q-5 7 -5 14q0 6 4 13zM565 346l183 330l-183 330q-4 7 -4 13q0 7 5 13q9 12 26 12h221q31 0 49 -38 l156 -281q13 -24 13 -48.5t-13 -49.5l-156 -281q-18 -39 -49 -39h-221q-16 0 -26 12q-5 7 -5 14q0 6 4 13z" />
<glyph unicode="&#xbc;" horiz-adv-x="1832" d="M61 1204v142q0 37 37 47l201 61h176q39 0 39 -39v-794q0 -39 -39 -39h-178q-39 0 -39 39v585l-158 -32q-39 -7 -39 30zM428 39l670 1376q20 39 51 39h229q16 0 25.5 -12t1.5 -27l-670 -1376q-18 -39 -51 -39h-229q-16 0 -26 12q-5 7 -5 14q0 6 4 13zM1157 156v153 q98 168 98 400v125q0 39 39 38h179q39 0 38 -38v-125q0 -80 -3 -131.5t-21.5 -118t-50.5 -121.5h69q41 80 41 248v14q0 39 39 39h146q39 0 38 -39v-262h5q39 0 38 -39v-143q0 -39 -38 -39h-5v-78q0 -39 -38 -39h-179q-39 0 -39 39v78h-317q-39 0 -39 39z" />
<glyph unicode="&#xbd;" horiz-adv-x="1832" d="M61 1204v142q0 37 37 47l201 61h176q39 0 39 -39v-794q0 -39 -39 -39h-178q-39 0 -39 39v585l-158 -32q-39 -7 -39 30zM428 39l670 1376q20 39 51 39h229q16 0 25.5 -12t1.5 -27l-670 -1376q-18 -39 -51 -39h-229q-16 0 -26 12q-5 7 -5 14q0 6 4 13zM1186 39v176 q0 104 54 173t117.5 92.5t118 51t54.5 58.5v35q0 47 -76 47q-35 0 -92 -5t-96 -12l-41 -4q-39 -6 -39 31v141q0 39 39 43q137 27 241 27q319 0 320 -256v-47q0 -74 -36 -128t-86 -83t-100.5 -50.5t-86 -45t-35.5 -54.5v-8h305q39 0 39 -39v-143q0 -39 -39 -39h-522 q-39 0 -39 39z" />
<glyph unicode="&#xbe;" horiz-adv-x="1832" d="M33 627v145q0 37 39 31q150 -20 227 -21q90 0 90 66v18q0 53 -94 54h-150q-39 0 -39 38v144q0 39 39 39h134q86 0 86 49v20q0 43 -78 43l-215 -20q-39 -4 -39 33v143q0 35 39 39q123 27 235 27q147 0 230.5 -51.5t83.5 -182.5v-47q0 -94 -80 -150q104 -53 104 -170v-67 q0 -246 -332 -246q-45 0 -105.5 6t-96.5 15l-39 6q-39 4 -39 39zM428 39l670 1376q20 39 51 39h229q16 0 25.5 -12t1.5 -27l-670 -1376q-18 -39 -51 -39h-229q-16 0 -26 12q-5 7 -5 14q0 6 4 13zM1157 156v153q98 168 98 400v125q0 39 39 38h179q39 0 38 -38v-125 q0 -80 -3 -131.5t-21.5 -118t-50.5 -121.5h69q41 80 41 248v14q0 39 39 39h146q39 0 38 -39v-262h5q39 0 38 -39v-143q0 -39 -38 -39h-5v-78q0 -39 -38 -39h-179q-39 0 -39 39v78h-317q-39 0 -39 39z" />
<glyph unicode="&#xbf;" horiz-adv-x="931" d="M102 -47q0 184 131 291l50 39q39 33 56 50t33.5 54t16.5 90v68q0 39 39 39h199q39 0 39 -39v-68q0 -141 -34 -215t-110 -129l-53 -39q-2 -2 -14.5 -10t-15.5 -11t-13 -11.5t-13 -11.5l-10.5 -11t-10.5 -14.5l-7 -15.5t-5 -18t-1 -20v-20q0 -104 151 -105q47 0 118 8.5 t118 16.5l45 8q39 4 39 -31v-180q0 -35 -39 -39q-162 -39 -313 -39q-395 0 -396 332v31zM379 807v219q0 39 39 39h219q39 0 39 -39v-219q0 -39 -39 -39h-219q-39 0 -39 39z" />
<glyph unicode="&#xc0;" horiz-adv-x="1239" d="M33 41l405 1374q10 39 47 39h269q37 0 47 -39l405 -1374q1 -5 2 -11q0 -10 -6 -18q-8 -12 -24 -12h-224q-33 0 -43 39l-57 207h-469l-57 -207q-10 -39 -43 -39h-224q-16 0 -24 12q-5 8 -6 18q1 6 2 11zM293 1849q6 14 24 15h252q37 0 56 -39l116 -226q8 -14 2 -28.5 t-24 -14.5h-203q-25 0 -55 39l-164 226q-6 9 -6 18q0 5 2 10zM457 502h325l-161 590z" />
<glyph unicode="&#xc1;" horiz-adv-x="1239" d="M33 41l405 1374q10 39 47 39h269q37 0 47 -39l405 -1374q1 -5 2 -11q0 -10 -6 -18q-8 -12 -24 -12h-224q-33 0 -43 39l-57 207h-469l-57 -207q-10 -39 -43 -39h-224q-16 0 -24 12q-5 8 -6 18q1 6 2 11zM457 502h325l-161 590zM512 1571q-3 6 -3 12q0 8 5 16l117 226 q20 39 55 39h252q18 0 25 -15q2 -5 2 -10q0 -9 -7 -18l-163 -226q-31 -39 -56 -39h-202q-19 1 -25 15z" />
<glyph unicode="&#xc2;" horiz-adv-x="1239" d="M33 41l405 1374q10 39 47 39h269q37 0 47 -39l405 -1374q1 -5 2 -11q0 -10 -6 -18q-8 -12 -24 -12h-224q-33 0 -43 39l-57 207h-469l-57 -207q-10 -39 -43 -39h-224q-16 0 -24 12q-5 8 -6 18q1 6 2 11zM303 1573v176q0 20 39 39l227 115q27 13 53 13t52 -13l225 -115 q39 -18 39 -39v-176q0 -16 -11.5 -24.5t-27.5 -2.5l-278 119l-279 -119q-16 -6 -27.5 2.5t-11.5 24.5zM457 502h325l-161 590z" />
<glyph unicode="&#xc3;" horiz-adv-x="1239" d="M33 41l405 1374q10 39 47 39h269q37 0 47 -39l405 -1374q1 -5 2 -11q0 -10 -6 -18q-8 -12 -24 -12h-224q-33 0 -43 39l-57 207h-469l-57 -207q-10 -39 -43 -39h-224q-16 0 -24 12q-5 8 -6 18q1 6 2 11zM303 1604v147q0 31 39 66q53 45 133 45q70 0 165 -37t124 -37 q25 0 57.5 12t52.5 25l21 12q16 6 29.5 -1t13.5 -24v-145q0 -37 -39 -65q-53 -45 -133 -46q-55 0 -153.5 37t-135.5 37q-57 0 -133 -49q-16 -6 -28.5 0.5t-12.5 22.5zM457 502h325l-161 590z" />
<glyph unicode="&#xc4;" horiz-adv-x="1239" d="M33 41l405 1374q10 39 47 39h269q37 0 47 -39l405 -1374q1 -5 2 -11q0 -10 -6 -18q-8 -12 -24 -12h-224q-33 0 -43 39l-57 207h-469l-57 -207q-10 -39 -43 -39h-224q-16 0 -24 12q-5 8 -6 18q1 6 2 11zM256 1575v199q0 39 39 38h199q39 0 38 -38v-199q0 -39 -38 -39h-199 q-39 0 -39 39zM457 502h325l-161 590zM707 1575v199q0 39 38 38h199q39 0 39 -38v-199q0 -39 -39 -39h-199q-38 0 -38 39z" />
<glyph unicode="&#xc5;" horiz-adv-x="1239" d="M33 41l387 1313q-55 59 -55 151q0 104 68.5 165t187 61t187.5 -60.5t69 -165.5q0 -92 -58 -153l387 -1311q1 -5 2 -11q0 -10 -6 -18q-8 -12 -24 -12h-224q-33 0 -43 39l-57 207h-469l-57 -207q-10 -39 -43 -39h-224q-16 0 -24 12q-5 8 -6 18q1 6 2 11zM457 502h325 l-161 590zM539 1505q0 -92 81.5 -92t81.5 92t-81.5 92t-81.5 -92z" />
<glyph unicode="&#xc6;" horiz-adv-x="1617" d="M37 41l532 1374q16 39 41 39h887q39 0 39 -39v-178q0 -39 -39 -39h-412v-328h371q39 0 39 -39v-178q0 -39 -39 -39h-371v-358h412q39 0 39 -39v-178q0 -39 -39 -39h-649q-39 0 -39 39v237h-375l-90 -237q-16 -39 -39 -39h-242q-16 0 -24 12q-5 7 -5 16q0 6 3 13zM530 532 h279v666h-25z" />
<glyph unicode="&#xc7;" horiz-adv-x="972" d="M123 512v430q0 256 129 394.5t373 138.5l227 -23q39 -4 39 -41v-182q0 -37 -41 -33q-133 16 -225 16q-225 0 -226 -290v-390q0 -139 52.5 -214.5t183.5 -75.5q41 0 95 4t89 8l33 6q39 4 39 -33v-184q0 -37 -39 -41q-119 -23 -227 -22h-21l-8 -37h8q170 0 170 -179 q0 -174 -211 -174l-149 15q-39 4 -39 39v55q0 35 37 35h41q76 0 75 53q0 49 -69 49h-33q-35 0 -29 39l29 133q-303 101 -303 504z" />
<glyph unicode="&#xc8;" horiz-adv-x="1034" d="M123 39v1376q0 39 39 39h751q39 0 39 -39v-178q0 -39 -39 -39h-514v-328h473q39 0 39 -39v-178q0 -39 -39 -39h-473v-358h514q39 0 39 -39v-178q0 -39 -39 -39h-751q-39 0 -39 39zM289 1849q6 14 24 15h252q37 0 56 -39l116 -226q5 -8 5 -16q0 -6 -3 -12q-6 -14 -24 -15 h-203q-25 0 -55 39l-164 226q-6 9 -7 18q1 5 3 10z" />
<glyph unicode="&#xc9;" horiz-adv-x="1034" d="M123 39v1376q0 39 39 39h751q39 0 39 -39v-178q0 -39 -39 -39h-514v-328h473q39 0 39 -39v-178q0 -39 -39 -39h-473v-358h514q39 0 39 -39v-178q0 -39 -39 -39h-751q-39 0 -39 39zM410 1571q-3 6 -3 12q0 8 5 16l116 226q20 39 56 39h252q18 0 24 -15q2 -5 2 -10 q0 -9 -6 -18l-164 -226q-31 -39 -55 -39h-203q-18 1 -24 15z" />
<glyph unicode="&#xca;" horiz-adv-x="1034" d="M123 39v1376q0 39 39 39h751q39 0 39 -39v-178q0 -39 -39 -39h-514v-328h473q39 0 39 -39v-178q0 -39 -39 -39h-473v-358h514q39 0 39 -39v-178q0 -39 -39 -39h-751q-39 0 -39 39zM221 1573v176q0 20 39 39l227 115q27 13 53 13t52 -13l225 -115q39 -18 39 -39v-176 q0 -16 -11 -25q-6 -5 -15 -4q-6 0 -13 2l-278 119l-279 -119q-7 -3 -13 -2q-8 0 -15 4q-11 9 -11 25z" />
<glyph unicode="&#xcb;" horiz-adv-x="1034" d="M123 39v1376q0 39 39 39h751q39 0 39 -39v-178q0 -39 -39 -39h-514v-328h473q39 0 39 -39v-178q0 -39 -39 -39h-473v-358h514q39 0 39 -39v-178q0 -39 -39 -39h-751q-39 0 -39 39zM174 1575v199q0 39 39 38h199q39 0 39 -38v-199q0 -39 -39 -39h-199q-39 0 -39 39z M625 1575v199q0 39 39 38h198q39 0 39 -38v-199q0 -39 -39 -39h-198q-39 0 -39 39z" />
<glyph unicode="&#xcc;" horiz-adv-x="911" d="M61 39v106q0 39 39 39h217v1086h-217q-39 0 -39 39v106q0 39 39 39h711q39 0 39 -39v-106q0 -39 -39 -39h-217v-1086h217q39 0 39 -39v-106q0 -39 -39 -39h-711q-39 0 -39 39zM133 1849q6 14 25 15h252q37 0 55 -39l117 -226q5 -8 4 -16q0 -6 -2 -12q-6 -14 -25 -15h-203 q-25 0 -55 39l-164 226q-6 9 -6 18q0 5 2 10z" />
<glyph unicode="&#xcd;" horiz-adv-x="911" d="M61 39v106q0 39 39 39h217v1086h-217q-39 0 -39 39v106q0 39 39 39h711q39 0 39 -39v-106q0 -39 -39 -39h-217v-1086h217q39 0 39 -39v-106q0 -39 -39 -39h-711q-39 0 -39 39zM342 1571q-3 6 -3 12q0 8 5 16l117 226q18 39 55 39h252q18 0 25 -15q2 -5 2 -10q0 -9 -7 -18 l-163 -226q-31 -39 -56 -39h-202q-19 1 -25 15z" />
<glyph unicode="&#xce;" horiz-adv-x="911" d="M61 39v106q0 39 39 39h217v1086h-217q-39 0 -39 39v106q0 39 39 39h711q39 0 39 -39v-106q0 -39 -39 -39h-217v-1086h217q39 0 39 -39v-106q0 -39 -39 -39h-711q-39 0 -39 39zM139 1573v176q0 20 39 39l228 115q27 13 52.5 13t51.5 -13l225 -115q39 -18 39 -39v-176 q0 -16 -11 -25q-6 -5 -15 -4q-6 0 -13 2l-278 119l-279 -119q-7 -3 -13 -2q-8 0 -14 4q-12 9 -12 25z" />
<glyph unicode="&#xcf;" horiz-adv-x="911" d="M61 39v106q0 39 39 39h217v1086h-217q-39 0 -39 39v106q0 39 39 39h711q39 0 39 -39v-106q0 -39 -39 -39h-217v-1086h217q39 0 39 -39v-106q0 -39 -39 -39h-711q-39 0 -39 39zM92 1575v199q0 39 39 38h199q39 0 39 -38v-199q0 -39 -39 -39h-199q-39 0 -39 39zM543 1575 v199q0 39 39 38h198q39 0 39 -38v-199q0 -39 -39 -39h-198q-39 0 -39 39z" />
<glyph unicode="&#xd0;" horiz-adv-x="1249" d="M123 39v1376q0 39 39 39h463q244 0 372.5 -138t128.5 -394v-390q0 -256 -129 -394t-372 -138h-463q-39 0 -39 39zM399 256h226q225 0 225 297v348q0 297 -225 297h-226v-328h289q39 0 39 -39v-178q0 -39 -39 -39h-289v-358z" />
<glyph unicode="&#xd1;" horiz-adv-x="1249" d="M123 39v1376q0 39 39 39h207q33 0 51 -39l430 -829v829q0 39 39 39h198q39 0 39 -39v-1376q0 -39 -39 -39h-206q-33 0 -52 39l-430 829v-829q0 -39 -39 -39h-198q-39 0 -39 39zM307 1604v147q0 31 39 66q53 45 133 45q70 0 165 -37t124 -37q25 0 57.5 12t53.5 25l20 12 q16 6 29.5 -1t13.5 -24v-145q0 -37 -39 -65q-53 -45 -133 -46q-55 0 -153.5 37t-135.5 37q-57 0 -133 -49q-16 -6 -28.5 0.5t-12.5 22.5z" />
<glyph unicode="&#xd2;" horiz-adv-x="1249" d="M123 512v430q0 256 129 394.5t372.5 138.5t372.5 -138.5t129 -394.5v-430q0 -256 -129 -394t-372.5 -138t-372.5 138t-129 394zM301 1849q6 14 25 15h252q37 0 55 -39l117 -226q8 -14 1.5 -28.5t-24.5 -14.5h-203q-25 0 -55 39l-164 226q-6 9 -6 18q0 5 2 10zM399 532 q0 -297 225.5 -296.5t225.5 296.5v390q0 297 -225.5 297t-225.5 -297v-390z" />
<glyph unicode="&#xd3;" horiz-adv-x="1249" d="M123 512v430q0 256 129 394.5t372.5 138.5t372.5 -138.5t129 -394.5v-430q0 -256 -129 -394t-372.5 -138t-372.5 138t-129 394zM399 532q0 -297 225.5 -296.5t225.5 296.5v390q0 297 -225.5 297t-225.5 -297v-390zM492 1571q-3 6 -3 12q0 8 5 16l116 226q20 39 56 39h252 q18 0 24 -15q2 -5 2 -10q0 -9 -6 -18l-164 -226q-31 -39 -55 -39h-203q-18 1 -24 15z" />
<glyph unicode="&#xd4;" horiz-adv-x="1249" d="M123 512v430q0 256 129 394.5t372.5 138.5t372.5 -138.5t129 -394.5v-430q0 -256 -129 -394t-372.5 -138t-372.5 138t-129 394zM307 1573v176q0 20 39 39l227 115q27 13 53 13t52 -13l225 -115q39 -18 39 -39v-176q0 -16 -11 -24.5t-28 -2.5l-278 119l-279 -119 q-16 -6 -27.5 2.5t-11.5 24.5zM399 532q0 -297 225.5 -296.5t225.5 296.5v390q0 297 -225.5 297t-225.5 -297v-390z" />
<glyph unicode="&#xd5;" horiz-adv-x="1249" d="M123 512v430q0 256 129 394.5t372.5 138.5t372.5 -138.5t129 -394.5v-430q0 -256 -129 -394t-372.5 -138t-372.5 138t-129 394zM307 1604v147q0 31 39 66q53 45 133 45q70 0 165 -37t124 -37q25 0 57.5 12t53.5 25l20 12q16 6 29.5 -1t13.5 -24v-145q0 -37 -39 -65 q-53 -45 -133 -46q-55 0 -153.5 37t-135.5 37q-57 0 -133 -49q-16 -6 -28.5 0.5t-12.5 22.5zM399 532q0 -297 225.5 -296.5t225.5 296.5v390q0 297 -225.5 297t-225.5 -297v-390z" />
<glyph unicode="&#xd6;" horiz-adv-x="1249" d="M123 512v430q0 256 129 394.5t372.5 138.5t372.5 -138.5t129 -394.5v-430q0 -256 -129 -394t-372.5 -138t-372.5 138t-129 394zM221 1575v199q0 39 39 38h199q39 0 39 -38v-199q0 -39 -39 -39h-199q-39 0 -39 39zM399 532q0 -297 225.5 -296.5t225.5 296.5v390 q0 297 -225.5 297t-225.5 -297v-390zM754 1575v199q0 39 39 38h198q39 0 39 -38v-199q0 -39 -39 -39h-198q-39 0 -39 39z" />
<glyph unicode="&#xd7;" horiz-adv-x="1079" d="M129 424q-13 13 -13 27t13 28l238 238l-238 237q-13 14 -13 28t13 28l119 116q13 14 27 14.5t28 -14.5l238 -235l235 235q13 14 27 14.5t28 -14.5l119 -116q14 -13 14.5 -27t-14.5 -29l-237 -237l237 -238q14 -14 14.5 -28t-14.5 -27l-119 -117q-14 -14 -27.5 -14 t-27.5 14l-237 236l-236 -236q-14 -14 -28 -14t-27 14z" />
<glyph unicode="&#xd8;" horiz-adv-x="1249" d="M123 512v430q0 256 129 394.5t373 138.5q92 0 166 -19l57 166q14 37 45 37h102q16 0 24.5 -11.5t2.5 -25.5l-82 -236q186 -133 186 -444v-430q0 -256 -129 -394t-372 -138q-92 0 -166 18l-58 -166q-14 -37 -45 -37h-102q-16 0 -24.5 11.5t-2.5 25.5l82 236 q-186 133 -186 444zM399 532q0 -94 19 -149l287 825q-37 10 -80 11q-225 0 -226 -297v-390zM545 246q37 -10 80 -10q225 0 225 296v390q0 94 -19 149z" />
<glyph unicode="&#xd9;" horiz-adv-x="1249" d="M123 532v883q0 39 39 39h198q39 0 39 -39v-883q0 -297 225.5 -296.5t225.5 296.5v883q0 39 39 39h198q39 0 39 -39v-883q0 -553 -501.5 -553t-501.5 553zM328 1849q6 14 24 15h252q35 0 55 -39l117 -226q5 -8 5 -16q0 -6 -3 -12q-6 -14 -24 -15h-203q-25 0 -55 39 l-164 226q-6 9 -7 18q1 5 3 10z" />
<glyph unicode="&#xda;" horiz-adv-x="1249" d="M123 532v883q0 39 39 39h198q39 0 39 -39v-883q0 -297 225.5 -296.5t225.5 296.5v883q0 39 39 39h198q39 0 39 -39v-883q0 -553 -501.5 -553t-501.5 553zM518 1571q-3 6 -2 12q0 8 4 16l117 226q18 39 55 39h252q18 0 25 -15q2 -5 2 -10q0 -9 -6 -18l-164 -226 q-31 -39 -56 -39h-202q-19 1 -25 15z" />
<glyph unicode="&#xdb;" horiz-adv-x="1249" d="M123 532v883q0 39 39 39h198q39 0 39 -39v-883q0 -297 225.5 -296.5t225.5 296.5v883q0 39 39 39h198q39 0 39 -39v-883q0 -553 -501.5 -553t-501.5 553zM307 1573v176q0 20 39 39l227 115q27 13 53 13t52 -13l225 -115q39 -18 39 -39v-176q0 -16 -11 -25q-6 -5 -15 -4 q-6 0 -13 2l-278 119l-279 -119q-7 -3 -13 -2q-8 0 -15 4q-11 9 -11 25z" />
<glyph unicode="&#xdc;" horiz-adv-x="1249" d="M123 532v883q0 39 39 39h198q39 0 39 -39v-883q0 -297 225.5 -296.5t225.5 296.5v883q0 39 39 39h198q39 0 39 -39v-883q0 -553 -501.5 -553t-501.5 553zM262 1575v199q0 39 39 38h199q39 0 39 -38v-199q0 -39 -39 -39h-199q-39 0 -39 39zM713 1575v199q0 39 39 38h198 q39 0 39 -38v-199q0 -39 -39 -39h-198q-39 0 -39 39z" />
<glyph unicode="&#xdd;" horiz-adv-x="1177" d="M39 1411q-3 7 -3 14q0 9 5 16q8 13 27 13h235q23 0 39 -39l248 -627l246 627q16 39 38 39h236q18 0 27 -13q5 -8 4 -16q0 -6 -2 -14l-412 -950v-422q0 -39 -39 -39h-199q-39 0 -38 39v422zM483 1571q-3 6 -2 12q0 8 4 16l117 226q20 39 55 39h252q18 0 25 -15q2 -5 2 -10 q0 -9 -6 -18l-164 -226q-31 -39 -55 -39h-203q-19 1 -25 15z" />
<glyph unicode="&#xde;" horiz-adv-x="1167" d="M123 39v1376q0 39 39 39h198q39 0 39 -39v-227h205q233 0 357 -103.5t124 -337t-123.5 -337t-357.5 -103.5h-205v-268q0 -39 -39 -39h-198q-39 0 -39 39zM399 553h185q115 0 170 45t55 149.5t-55.5 149.5t-169.5 45h-185v-389z" />
<glyph unicode="&#xdf;" horiz-adv-x="1187" d="M123 39v1022q0 188 100.5 301t304.5 113q178 0 286 -93.5t108 -263.5q0 -86 -31 -158.5t-61.5 -123t-30.5 -82.5q0 -35 29.5 -62.5t71.5 -55.5t84 -62.5t71.5 -99t29.5 -152.5q0 -342 -342 -342q-55 0 -110 4t-84 8l-27 2q-41 8 -41 39v174q0 39 41 33q98 -14 185 -15 q102 0 102 86q0 43 -45 80t-98.5 64.5t-98.5 96.5t-45 167q0 92 61.5 210t61.5 167q0 123 -117 123q-129 0 -129 -164v-1016q0 -39 -39 -39h-198q-39 0 -39 39z" />
<glyph unicode="&#xe0;" horiz-adv-x="1044" d="M92 297q0 156 96.5 236.5t272.5 80.5q104 0 184 -12v53q0 70 -36 101.5t-113 31.5q-49 0 -120 -9t-118 -17l-45 -8q-39 -4 -39 30v174q0 35 39 41q150 45 328 45q215 0 298 -94t83 -295v-616q0 -39 -39 -39h-178q-39 0 -39 39v14q-121 -74 -248 -73q-326 0 -326 317z M227 1460q6 14 25 15h252q37 0 55 -39l117 -226q5 -8 5 -16q0 -6 -3 -12q-6 -14 -25 -15h-202q-25 0 -56 39l-164 226q-6 9 -6 17q0 6 2 11zM369 307q0 -102 116 -102q68 0 160 43v168h-139q-137 0 -137 -109z" />
<glyph unicode="&#xe1;" horiz-adv-x="1044" d="M92 297q0 156 96.5 236.5t272.5 80.5q104 0 184 -12v53q0 70 -36 101.5t-113 31.5q-49 0 -120 -9t-118 -17l-45 -8q-39 -4 -39 30v174q0 35 39 41q150 45 328 45q215 0 298 -94t83 -295v-616q0 -39 -39 -39h-178q-39 0 -39 39v14q-121 -74 -248 -73q-326 0 -326 317z M369 307q0 -102 116 -102q68 0 160 43v168h-139q-137 0 -137 -109zM416 1182q-3 6 -3 12q0 8 5 16l117 226q18 39 55 39h252q18 0 24 -15q2 -5 3 -11q0 -9 -7 -17l-164 -226q-31 -39 -55 -39h-203q-18 1 -24 15z" />
<glyph unicode="&#xe2;" horiz-adv-x="1044" d="M92 297q0 156 96.5 236.5t272.5 80.5q104 0 184 -12v53q0 70 -36 101.5t-113 31.5q-49 0 -120 -9t-118 -17l-45 -8q-39 -4 -39 30v174q0 35 39 41q150 45 328 45q215 0 298 -94t83 -295v-616q0 -39 -39 -39h-178q-39 0 -39 39v14q-121 -74 -248 -73q-326 0 -326 317z M205 1145v176q0 4 1 8t3 7t4 5t7 5.5t7 4.5t8.5 5t8.5 4l227 115q27 13 53 13t51 -13l226 -115q37 -25 39 -39v-176q0 -16 -11.5 -24.5t-27.5 -2.5l-279 119l-278 -119q-16 -6 -27.5 2.5t-11.5 24.5zM369 307q0 -102 116 -102q68 0 160 43v168h-139q-137 0 -137 -109z" />
<glyph unicode="&#xe3;" horiz-adv-x="1044" d="M92 297q0 156 96.5 236.5t272.5 80.5q104 0 184 -12v53q0 70 -36 101.5t-113 31.5q-49 0 -120 -9t-118 -17l-45 -8q-39 -4 -39 30v174q0 35 39 41q150 45 328 45q215 0 298 -94t83 -295v-616q0 -39 -39 -39h-178q-39 0 -39 39v14q-121 -74 -248 -73q-326 0 -326 317z M205 1217v147q0 31 39 66q53 45 133 45q70 0 165 -37t124 -37q25 0 57.5 12t52.5 25l21 12q16 6 29.5 -1t13.5 -24v-145q0 -37 -39 -66q-53 -45 -133 -45q-55 0 -153.5 37t-135.5 37q-57 0 -133 -49q-16 -6 -28.5 0.5t-12.5 22.5zM369 307q0 -102 116 -102q68 0 160 43v168 h-139q-137 0 -137 -109z" />
<glyph unicode="&#xe4;" horiz-adv-x="1044" d="M92 297q0 156 96.5 236.5t272.5 80.5q104 0 184 -12v53q0 70 -36 101.5t-113 31.5q-49 0 -120 -9t-118 -17l-45 -8q-39 -4 -39 30v174q0 35 39 41q150 45 328 45q215 0 298 -94t83 -295v-616q0 -39 -39 -39h-178q-39 0 -39 39v14q-121 -74 -248 -73q-326 0 -326 317z M174 1217v198q0 39 39 39h199q39 0 39 -39v-198q0 -39 -39 -39h-199q-39 0 -39 39zM369 307q0 -102 116 -102q68 0 160 43v168h-139q-137 0 -137 -109zM625 1217v198q0 39 39 39h198q39 0 39 -39v-198q0 -39 -39 -39h-198q-39 0 -39 39z" />
<glyph unicode="&#xe5;" horiz-adv-x="1044" d="M92 297q0 156 96.5 236.5t272.5 80.5q104 0 184 -12v53q0 70 -36 101.5t-113 31.5q-49 0 -120 -9t-118 -17l-45 -8q-39 -4 -39 30v174q0 35 39 41q150 45 328 45q215 0 298 -94t83 -295v-616q0 -39 -39 -39h-178q-39 0 -39 39v14q-121 -74 -248 -73q-326 0 -326 317z M285 1331.5q0 104.5 68.5 164.5t187 60t187.5 -60t69 -164.5t-69 -165t-187.5 -60.5t-187 60.5t-68.5 165zM369 307q0 -102 116 -102q68 0 160 43v168h-139q-137 0 -137 -109zM459 1331q0 -92 82 -92t82 92t-82 92t-82 -92z" />
<glyph unicode="&#xe6;" horiz-adv-x="1587" d="M92 297q0 156 96.5 236.5t272.5 80.5q104 0 184 -12v53q0 70 -36 101.5t-113 31.5q-49 0 -120 -9t-118 -17l-45 -8q-39 -4 -39 30v174q0 35 39 41q150 45 328 45q188 0 276 -73q102 74 254 73q205 0 304.5 -120.5t99.5 -313.5v-172q0 -39 -39 -39h-510q20 -168 200 -168 l269 27q39 4 39 -33v-176q0 -37 -39 -41q-150 -29 -285 -28q-242 0 -358 135q-162 -135 -334 -135q-326 0 -326 317zM369 307q0 -102 116 -102q80 0 189 57q-20 63 -27 154h-141q-137 0 -137 -109zM922 598h297v29q0 92 -32 139t-112 47q-84 0 -117.5 -52t-35.5 -163z" />
<glyph unicode="&#xe7;" horiz-adv-x="819" d="M123 389v246q0 205 107.5 307t308.5 102l180 -18q39 -2 39 -41v-166q0 -37 -39 -33q-90 12 -162 13q-88 0 -123 -44t-35 -130v-226q0 -88 36 -131t124 -43l160 13q39 4 39 -33v-166q0 -39 -39 -41q-98 -18 -180 -18h-23l-8 -37h8q170 0 170 -179q0 -174 -211 -174 l-149 15q-39 4 -39 39v55q0 35 37 35h41q76 0 75 53q0 49 -69 49h-33q-35 0 -29 39l31 137q-217 86 -217 377z" />
<glyph unicode="&#xe8;" horiz-adv-x="1054" d="M113 475v86q0 221 110.5 352t315 131t304 -120.5t99.5 -313.5v-172q0 -39 -39 -39h-510q20 -168 201 -168l268 27q39 4 39 -33v-176q0 -37 -39 -41q-150 -29 -284 -28q-465 -1 -465 495zM219 1460q6 14 25 15h252q37 0 55 -39l117 -226q8 -14 2 -28.5t-25 -14.5h-203 q-25 0 -55 39l-164 226q-6 9 -6 17q0 6 2 11zM389 598h297v29q0 92 -31.5 139t-111.5 47q-84 0 -118 -52t-36 -163z" />
<glyph unicode="&#xe9;" horiz-adv-x="1054" d="M113 475v86q0 221 110.5 352t315 131t304 -120.5t99.5 -313.5v-172q0 -39 -39 -39h-510q20 -168 201 -168l268 27q39 4 39 -33v-176q0 -37 -39 -41q-150 -29 -284 -28q-465 -1 -465 495zM389 598h297v29q0 92 -31.5 139t-111.5 47q-84 0 -118 -52t-36 -163zM412 1182 q-3 6 -3 12q0 8 5 16l116 226q18 39 56 39h252q18 0 24 -15q2 -5 3 -11q0 -9 -7 -17l-164 -226q-31 -39 -55 -39h-203q-18 1 -24 15z" />
<glyph unicode="&#xea;" horiz-adv-x="1054" d="M113 475v86q0 221 110.5 352t315 131t304 -120.5t99.5 -313.5v-172q0 -39 -39 -39h-510q20 -168 201 -168l268 27q39 4 39 -33v-176q0 -37 -39 -41q-150 -29 -284 -28q-465 -1 -465 495zM211 1145v176q0 4 1 8t3 7t4 5t7 5.5t7.5 4.5t8.5 5t8 4l227 115q27 13 53 13 t52 -13l225 -115q37 -25 39 -39v-176q0 -16 -11.5 -24.5t-27.5 -2.5l-279 119l-278 -119q-16 -6 -27.5 2.5t-11.5 24.5zM389 598h297v29q0 92 -31.5 139t-111.5 47q-84 0 -118 -52t-36 -163z" />
<glyph unicode="&#xeb;" horiz-adv-x="1054" d="M113 475v86q0 221 110.5 352t315 131t304 -120.5t99.5 -313.5v-172q0 -39 -39 -39h-510q20 -168 201 -168l268 27q39 4 39 -33v-176q0 -37 -39 -41q-150 -29 -284 -28q-465 -1 -465 495zM164 1217v198q0 39 39 39h198q39 0 39 -39v-198q0 -39 -39 -39h-198q-39 0 -39 39z M389 598h297v29q0 92 -31.5 139t-111.5 47q-84 0 -118 -52t-36 -163zM614 1217v198q0 39 39 39h199q39 0 39 -39v-198q0 -39 -39 -39h-199q-39 0 -39 39z" />
<glyph unicode="&#xec;" horiz-adv-x="522" d="M-66 1460q6 14 25 15h252q35 0 55 -39l117 -226q8 -14 2 -28.5t-25 -14.5h-202q-25 0 -56 39l-163 226q-6 9 -7 17q0 6 2 11zM123 39v946q0 39 39 39h198q39 0 39 -39v-946q0 -39 -39 -39h-198q-39 0 -39 39z" />
<glyph unicode="&#xed;" horiz-adv-x="522" d="M123 39v946q0 39 39 39h198q39 0 39 -39v-946q0 -39 -39 -39h-198q-39 0 -39 39zM135 1182q-3 6 -2 12q0 8 4 16l117 226q20 39 55 39h252q18 0 25 -15q2 -5 2 -11q0 -9 -6 -17l-164 -226q-31 -39 -56 -39h-202q-19 1 -25 15z" />
<glyph unicode="&#xee;" horiz-adv-x="522" d="M-55 1145v176q0 4 1 8t3 7t4 5t7 5.5t7 4.5t8.5 5t8.5 4l227 115q27 13 53 13t51 -13l226 -115q37 -25 39 -39v-176q0 -16 -11.5 -24.5t-27.5 -2.5l-279 119l-278 -119q-16 -6 -27.5 2.5t-11.5 24.5zM123 39v946q0 39 39 39h198q39 0 39 -39v-946q0 -39 -39 -39h-198 q-39 0 -39 39z" />
<glyph unicode="&#xef;" horiz-adv-x="522" d="M-102 1217v198q0 39 39 39h198q39 0 39 -39v-198q0 -39 -39 -39h-198q-39 0 -39 39zM123 39v946q0 39 39 39h198q39 0 39 -39v-946q0 -39 -39 -39h-198q-39 0 -39 39zM348 1217v198q0 39 39 39h199q39 0 39 -39v-198q0 -39 -39 -39h-199q-39 0 -39 39z" />
<glyph unicode="&#xf0;" horiz-adv-x="1126" d="M123 410v208q0 385 360 386q137 0 244 -64v43q0 57 -8 92l-127 -47q-16 -6 -27.5 1t-11.5 24v75q0 27 39 43l51 19q-51 29 -141 29l-258 -23q-39 -4 -39 33v180q0 37 39 39q150 27 268 27q293 0 412 -183l123 45q16 6 27 -2t11 -24v-68q0 -33 -38 -49l-68 -25 q25 -88 25 -206v-553q0 -207 -114 -318.5t-327 -111.5q-217 0 -328.5 112.5t-111.5 317.5zM399 416q0 -180 164 -180t164 180v274q-111 57 -184 58q-143 0 -144 -144v-188z" />
<glyph unicode="&#xf1;" d="M123 39v946q0 39 39 39h178q39 0 39 -39v-29q125 88 266 88q166 0 236.5 -90t70.5 -258v-657q0 -39 -39 -39h-198q-39 0 -39 39v616q0 133 -119 133q-68 0 -158 -43v-706q0 -39 -39 -39h-198q-39 0 -39 39zM221 1217v147q0 31 39 66q53 45 133 45q70 0 165 -37t124 -37 q25 0 57.5 12t53.5 25l20 12q16 6 29.5 -1t13.5 -24v-145q0 -37 -39 -66q-53 -45 -133 -45q-55 0 -153.5 37t-135.5 37q-57 0 -133 -49q-16 -6 -28.5 0.5t-12.5 22.5z" />
<glyph unicode="&#xf2;" horiz-adv-x="1077" d="M123 389v246q0 205 107.5 307t308 102t308 -102t107.5 -307v-246q0 -205 -107.5 -307t-308 -102t-308 102t-107.5 307zM211 1460q6 14 25 15h251q37 0 56 -39l116 -226q8 -14 2 -28.5t-24 -14.5h-203q-25 0 -55 39l-164 226q-6 9 -6 17q0 6 2 11zM399 385 q0 -164 139.5 -164t139.5 164v256q0 164 -139.5 164t-139.5 -164v-256z" />
<glyph unicode="&#xf3;" horiz-adv-x="1077" d="M123 389v246q0 205 107.5 307t308 102t308 -102t107.5 -307v-246q0 -205 -107.5 -307t-308 -102t-308 102t-107.5 307zM399 385q0 -164 139.5 -164t139.5 164v256q0 164 -139.5 164t-139.5 -164v-256zM410 1182q-3 6 -3 12q0 8 5 16l116 226q20 39 56 39h252q18 0 24 -15 q2 -5 2 -11q0 -9 -6 -17l-164 -226q-31 -39 -55 -39h-203q-18 1 -24 15z" />
<glyph unicode="&#xf4;" horiz-adv-x="1077" d="M123 389v246q0 205 107.5 307t308 102t308 -102t107.5 -307v-246q0 -205 -107.5 -307t-308 -102t-308 102t-107.5 307zM221 1145v176q0 4 1 8t3 7t4 5t7.5 5.5t7.5 4.5t8 5t8 4l227 115q27 13 53 13t52 -13l225 -115q37 -25 39 -39v-176q0 -16 -11 -24.5t-28 -2.5 l-278 119l-279 -119q-16 -6 -27.5 2.5t-11.5 24.5zM399 385q0 -164 139.5 -164t139.5 164v256q0 164 -139.5 164t-139.5 -164v-256z" />
<glyph unicode="&#xf5;" horiz-adv-x="1077" d="M123 389v246q0 205 107.5 307t308 102t308 -102t107.5 -307v-246q0 -205 -107.5 -307t-308 -102t-308 102t-107.5 307zM221 1217v147q0 31 39 66q53 45 133 45q70 0 165 -37t124 -37q25 0 57.5 12t53.5 25l20 12q16 6 29.5 -1t13.5 -24v-145q0 -37 -39 -66 q-53 -45 -133 -45q-55 0 -153.5 37t-135.5 37q-57 0 -133 -49q-16 -6 -28.5 0.5t-12.5 22.5zM399 385q0 -164 139.5 -164t139.5 164v256q0 164 -139.5 164t-139.5 -164v-256z" />
<glyph unicode="&#xf6;" horiz-adv-x="1077" d="M123 389v246q0 205 107.5 307t308 102t308 -102t107.5 -307v-246q0 -205 -107.5 -307t-308 -102t-308 102t-107.5 307zM176 1217v198q0 39 39 39h199q39 0 39 -39v-198q0 -39 -39 -39h-199q-39 0 -39 39zM399 385q0 -164 139.5 -164t139.5 164v256q0 164 -139.5 164 t-139.5 -164v-256zM627 1217v198q0 39 39 39h198q39 0 39 -39v-198q0 -39 -39 -39h-198q-39 0 -39 39z" />
<glyph unicode="&#xf7;" d="M102 633v168q0 39 39 39h793q39 0 39 -39v-168q0 -39 -39 -39h-793q-39 0 -39 39zM399 254v199q0 39 39 39h199q39 0 39 -39v-199q0 -39 -39 -39h-199q-39 0 -39 39zM399 981v199q0 39 39 39h199q39 0 39 -39v-199q0 -39 -39 -39h-199q-39 0 -39 39z" />
<glyph unicode="&#xf8;" horiz-adv-x="1077" d="M123 389v246q0 205 107.5 307t308.5 102q39 0 100 -8l55 156q14 37 41 37h103q16 0 25 -12.5t3 -26.5l-73 -207q162 -98 161 -348v-246q0 -205 -107.5 -307t-307.5 -102q-39 0 -101 8l-57 -158q-14 -35 -41 -35h-102q-16 0 -25.5 12.5t-3.5 26.5l74 209 q-160 102 -160 346zM399 385q0 -33 7 -59l169 475q-20 4 -36 4q-139 0 -140 -164v-256zM502 225q25 -4 37 -4q139 0 139 164v256q0 35 -6 61z" />
<glyph unicode="&#xf9;" d="M123 328v657q0 39 39 39h198q39 0 39 -39v-616q0 -133 119 -133q68 0 158 43v706q0 39 39 39h198q39 0 39 -39v-946q0 -39 -39 -39h-178q-39 0 -39 39v29q-125 -88 -266 -88q-166 0 -236.5 90t-70.5 258zM215 1460q6 14 25 15h252q37 0 55 -39l117 -226q5 -8 4 -16 q0 -6 -2 -12q-6 -14 -25 -15h-203q-25 0 -55 39l-164 226q-6 9 -6 17q0 6 2 11z" />
<glyph unicode="&#xfa;" d="M123 328v657q0 39 39 39h198q39 0 39 -39v-616q0 -133 119 -133q68 0 158 43v706q0 39 39 39h198q39 0 39 -39v-946q0 -39 -39 -39h-178q-39 0 -39 39v29q-125 -88 -266 -88q-166 0 -236.5 90t-70.5 258zM418 1182q-3 6 -3 12q0 8 5 16l117 226q20 39 55 39h252 q18 0 24 -15q2 -5 3 -11q0 -9 -7 -17l-164 -226q-31 -39 -55 -39h-203q-18 1 -24 15z" />
<glyph unicode="&#xfb;" d="M123 328v657q0 39 39 39h198q39 0 39 -39v-616q0 -133 119 -133q68 0 158 43v706q0 39 39 39h198q39 0 39 -39v-946q0 -39 -39 -39h-178q-39 0 -39 39v29q-125 -88 -266 -88q-166 0 -236.5 90t-70.5 258zM221 1145v176q0 4 1 8t3 7t4 5t7.5 5.5t7.5 4.5t8 5t8 4l227 115 q27 13 53 13t52 -13l225 -115q37 -25 39 -39v-176q0 -16 -11 -25q-6 -5 -15 -4q-6 0 -13 2l-278 119l-279 -119q-7 -3 -13 -2q-8 0 -15 4q-11 9 -11 25z" />
<glyph unicode="&#xfc;" d="M123 328v657q0 39 39 39h198q39 0 39 -39v-616q0 -133 119 -133q68 0 158 43v706q0 39 39 39h198q39 0 39 -39v-946q0 -39 -39 -39h-178q-39 0 -39 39v29q-125 -88 -266 -88q-166 0 -236.5 90t-70.5 258zM174 1217v198q0 39 39 39h199q39 0 39 -39v-198q0 -39 -39 -39 h-199q-39 0 -39 39zM625 1217v198q0 39 39 39h198q39 0 39 -39v-198q0 -39 -39 -39h-198q-39 0 -39 39z" />
<glyph unicode="&#xfd;" horiz-adv-x="1024" d="M33 985q-1 5 -1 9q0 11 7 19q10 11 27 11h217q35 0 45 -35l174 -567l192 565q10 37 45 37h217q16 0 27 -12q7 -9 7 -20q0 -4 -1 -9l-454 -1335q-10 -37 -43 -37h-222q-16 0 -25 12t-5 29l112 332zM387 1182q-3 6 -3 12q0 8 5 16l117 226q18 39 55 39h252q18 0 25 -15 q2 -5 2 -11q0 -9 -6 -17l-164 -226q-31 -39 -56 -39h-202q-19 1 -25 15z" />
<glyph unicode="&#xfe;" d="M123 -350v1765q0 39 39 39h198q39 0 39 -39v-430q109 59 215 59q168 0 253 -98t85 -270v-287q0 -180 -101 -284.5t-300 -104.5q-47 0 -152 14v-364q0 -39 -39 -39h-198q-39 0 -39 39zM399 236h131q145 0 146 163v246q0 154 -135 154q-57 0 -142 -35v-528z" />
<glyph unicode="&#xff;" horiz-adv-x="1024" d="M33 985q-1 5 -1 9q0 11 7 19q10 11 27 11h217q35 0 45 -35l174 -567l192 565q10 37 45 37h217q16 0 27 -12q7 -9 7 -20q0 -4 -1 -9l-454 -1335q-10 -37 -43 -37h-222q-16 0 -25 12t-5 29l112 332zM150 1217v198q0 39 38 39h199q39 0 39 -39v-198q0 -39 -39 -39h-199 q-38 0 -38 39zM600 1217v198q0 39 39 39h199q39 0 39 -39v-198q0 -39 -39 -39h-199q-39 0 -39 39z" />
<glyph unicode="&#x152;" horiz-adv-x="1658" d="M123 512v430q0 256 129 394.5t373 138.5q139 0 225 -86v26q0 39 39 39h649q39 0 39 -39v-178q0 -39 -39 -39h-412v-328h371q39 0 39 -39v-178q0 -39 -39 -39h-371v-358h412q39 0 39 -39v-178q0 -39 -39 -39h-649q-39 0 -39 39v31q-86 -90 -225 -90q-244 0 -373 138 t-129 394zM399 532q0 -297 225.5 -296.5t225.5 296.5v390q0 297 -225.5 297t-225.5 -297v-390z" />
<glyph unicode="&#x153;" horiz-adv-x="1619" d="M123 389v246q0 205 107.5 307t308.5 102q195 0 290 -96q102 96 275 96q205 0 304 -120.5t99 -313.5v-172q0 -39 -39 -39h-510q20 -168 201 -168l268 27q39 4 39 -33v-176q0 -37 -39 -41q-150 -29 -284 -28q-201 0 -312 98q-98 -98 -292 -98q-201 0 -308.5 102t-107.5 307 zM399 385q0 -164 139.5 -164t139.5 164v256q0 164 -139.5 164t-139.5 -164v-256zM954 598h297v29q0 92 -31.5 139t-111.5 47q-84 0 -118 -52t-36 -163z" />
<glyph unicode="&#x178;" horiz-adv-x="1177" d="M39 1411q-3 7 -3 14q0 9 5 16q8 13 27 13h235q23 0 39 -39l248 -627l246 627q16 39 38 39h236q18 0 27 -13q5 -8 4 -16q0 -6 -2 -14l-412 -950v-422q0 -39 -39 -39h-199q-39 0 -38 39v422zM225 1575v199q0 39 39 38h199q39 0 39 -38v-199q0 -39 -39 -39h-199 q-39 0 -39 39zM676 1575v199q0 39 39 38h198q39 0 39 -38v-199q0 -39 -39 -39h-198q-39 0 -39 39z" />
<glyph unicode="&#x2c6;" horiz-adv-x="839" d="M102 1145v176q0 4 1 8t3.5 7t4.5 5t7 5.5t7 4.5t8 5t8 4l228 115q27 13 52.5 13t51.5 -13l225 -115q37 -25 39 -39v-176q0 -16 -11 -25q-6 -5 -15 -4q-6 0 -13 2l-278 119l-279 -119q-7 -3 -13 -2q-8 0 -14 4q-12 9 -12 25z" />
<glyph unicode="&#x2dc;" horiz-adv-x="839" d="M102 1217v147q0 31 39 66q53 45 133 45q70 0 165.5 -37t123.5 -37q25 0 57.5 12t53.5 25l20 12q16 6 29.5 -1t13.5 -24v-145q0 -37 -39 -66q-53 -45 -133 -45q-55 0 -153.5 37t-135.5 37q-57 0 -133 -49q-16 -6 -28.5 0.5t-12.5 22.5z" />
<glyph unicode="&#x2013;" horiz-adv-x="1249" d="M102 633v168q0 39 39 39h967q39 0 39 -39v-168q0 -39 -39 -39h-967q-39 0 -39 39z" />
<glyph unicode="&#x2014;" horiz-adv-x="1454" d="M102 633v168q0 39 39 39h1172q39 0 39 -39v-168q0 -39 -39 -39h-1172q-39 0 -39 39z" />
<glyph unicode="&#x2018;" horiz-adv-x="501" d="M102 848v237l78 330q10 39 43 39h103q37 0 32 -37l-41 -311h43q39 0 39 -39v-219q0 -39 -39 -39h-219q-39 0 -39 39z" />
<glyph unicode="&#x2019;" horiz-adv-x="501" d="M102 1196v219q0 39 39 39h219q39 0 39 -39v-237l-77 -330q-10 -39 -43 -39h-103q-37 0 -33 37l41 311h-43q-39 0 -39 39z" />
<glyph unicode="&#x201a;" horiz-adv-x="501" d="M102 39v219q0 39 39 39h219q39 0 39 -39v-238l-77 -329q-10 -39 -43 -39h-103q-37 0 -33 37l41 311h-43q-39 0 -39 39z" />
<glyph unicode="&#x201c;" horiz-adv-x="921" d="M102 848v237l78 330q10 39 43 39h103q37 0 32 -37l-41 -311h43q39 0 39 -39v-219q0 -39 -39 -39h-219q-39 0 -39 39zM522 848v237l78 330q10 39 43 39h102q37 0 33 -37l-41 -311h43q39 0 39 -39v-219q0 -39 -39 -39h-219q-39 0 -39 39z" />
<glyph unicode="&#x201d;" horiz-adv-x="921" d="M102 1196v219q0 39 39 39h219q39 0 39 -39v-237l-77 -330q-10 -39 -43 -39h-103q-37 0 -33 37l41 311h-43q-39 0 -39 39zM522 1196v219q0 39 39 39h219q39 0 39 -39v-237l-78 -330q-10 -39 -43 -39h-102q-37 0 -33 37l41 311h-43q-39 0 -39 39z" />
<glyph unicode="&#x201e;" horiz-adv-x="921" d="M102 39v219q0 39 39 39h219q39 0 39 -39v-238l-77 -329q-10 -39 -43 -39h-103q-37 0 -33 37l41 311h-43q-39 0 -39 39zM522 39v219q0 39 39 39h219q39 0 39 -39v-238l-78 -329q-10 -39 -43 -39h-102q-37 0 -33 37l41 311h-43q-39 0 -39 39z" />
<glyph unicode="&#x2022;" horiz-adv-x="563" d="M102 592v280q0 39 39 39h281q39 0 39 -39v-280q0 -39 -39 -39h-281q-39 0 -39 39z" />
<glyph unicode="&#x2026;" horiz-adv-x="1341" d="M102 39v219q0 39 39 39h219q39 0 39 -39v-219q0 -39 -39 -39h-219q-39 0 -39 39zM522 39v219q0 39 39 39h219q39 0 39 -39v-219q0 -39 -39 -39h-219q-39 0 -39 39zM942 39v219q0 39 39 39h219q39 0 39 -39v-219q0 -39 -39 -39h-219q-39 0 -39 39z" />
<glyph unicode="&#x2039;" horiz-adv-x="706" d="M129 627q-13 26 -13 50t13 48l156 281q18 39 49 38h221q16 0 26 -12q5 -7 4 -13q0 -6 -3 -13l-183 -330l183 -330q4 -7 3 -13q0 -7 -4 -14q-9 -12 -26 -12h-221q-31 0 -49 39z" />
<glyph unicode="&#x203a;" horiz-adv-x="706" d="M125 346l182 330l-182 330q-4 7 -4 13q0 7 5 13q9 12 26 12h221q29 0 49 -38l156 -281q14 -26 14 -50.5t-14 -47.5l-156 -281q-20 -39 -49 -39h-221q-16 0 -26 12q-5 7 -5 14q0 6 4 13z" />
<glyph unicode="&#x20ac;" horiz-adv-x="1024" d="M14 469l15 158q4 39 39 39h127v122h-127q-37 0 -33 39l14 158q4 39 39 39h111q20 219 147 335t350 116l228 -23q39 -4 39 -41v-182q0 -37 -41 -33q-133 16 -226 16q-184 0 -217 -188h385q37 0 33 -39l-14 -158q-4 -39 -39 -39h-373v-122h373q37 0 33 -39l-15 -158 q-4 -39 -39 -39h-344q33 -188 228 -188l237 20q39 4 39 -33v-184q0 -37 -39 -41q-139 -25 -248 -24q-223 0 -350 115.5t-147 334.5h-152q-37 0 -33 39z" />
<glyph unicode="&#x2122;" horiz-adv-x="1914" d="M61 1237v178q0 39 39 39h619q39 0 39 -39v-178q0 -39 -39 -39h-170v-432q0 -39 -39 -39h-199q-39 0 -39 39v432h-172q-39 0 -39 39zM819 766v649q0 39 39 39h250q31 0 49 -39l160 -313l158 313q20 39 49 39h250q39 0 38 -39v-649q0 -39 -38 -39h-199q-39 0 -39 39v256 l-94 -195q-20 -39 -47 -39h-158q-29 0 -47 39l-94 195v-256q0 -39 -39 -39h-199q-39 0 -39 39z" />
<glyph unicode="&#xe000;" horiz-adv-x="1025" d="M0 1025h1025v-1025h-1025v1025z" />
<glyph unicode="&#xfb01;" d="M20 827v158q0 39 39 39h64v117q0 180 88 257t219 77q39 0 73 -3.5t48 -5.5l14 -4q39 -6 39 -39v-174q0 -37 -39 -35q-43 4 -71 5q-94 0 -95 -91v-104h514q39 0 39 -39v-946q0 -39 -39 -39h-198q-39 0 -39 39v749h-277v-749q0 -39 -39 -39h-198q-39 0 -39 39v749h-64 q-39 0 -39 39zM676 1217v198q0 39 39 39h198q39 0 39 -39v-198q0 -39 -39 -39h-198q-39 0 -39 39z" />
<glyph unicode="&#xfb02;" d="M20 827v158q0 39 39 39h64v117q0 180 88 257t219 77q39 0 73 -3.5t48 -5.5l14 -4q39 -6 39 -39v-174q0 -37 -39 -35q-43 4 -71 5q-94 0 -95 -91v-104h105q39 0 39 -39v-158q0 -39 -39 -39h-105v-749q0 -39 -39 -39h-198q-39 0 -39 39v749h-64q-39 0 -39 39zM676 39v1376 q0 39 39 39h198q39 0 39 -39v-1376q0 -39 -39 -39h-198q-39 0 -39 39z" />
<glyph unicode="&#xfb03;" horiz-adv-x="1771" d="M20 827v158q0 39 39 39h105v117q0 180 88 257t219 77q39 0 73 -3.5t48 -5.5l14 -4q39 -6 39 -39v-174q0 -37 -39 -35q-43 4 -71 5q-94 0 -95 -91v-104h125q39 0 39 -39v-158q0 -39 -39 -39h-125v-749q0 -39 -39 -39h-198q-39 0 -39 39v749h-105q-39 0 -39 39zM645 827 v158q0 39 39 39h104v117q0 180 88.5 257t219.5 77q39 0 72.5 -3.5t48.5 -5.5l14 -4q39 -6 39 -39v-174q0 -37 -39 -35q-43 4 -72 5q-94 0 -94 -91v-104h125q39 0 39 -39v-158q0 -39 -39 -39h-125v-749q0 -39 -39 -39h-199q-39 0 -39 39v749h-104q-39 0 -39 39zM1372 39v946 q0 39 39 39h199q39 0 39 -39v-946q0 -39 -39 -39h-199q-39 0 -39 39zM1372 1217v198q0 39 39 39h199q39 0 39 -39v-198q0 -39 -39 -39h-199q-39 0 -39 39z" />
<glyph unicode="&#xfb04;" horiz-adv-x="1771" d="M20 827v158q0 39 39 39h105v117q0 180 88 257t219 77q39 0 73 -3.5t48 -5.5l14 -4q39 -6 39 -39v-174q0 -37 -39 -35q-43 4 -71 5q-94 0 -95 -91v-104h125q39 0 39 -39v-158q0 -39 -39 -39h-125v-749q0 -39 -39 -39h-198q-39 0 -39 39v749h-105q-39 0 -39 39zM645 827 v158q0 39 39 39h104v117q0 180 88.5 257t219.5 77q39 0 72.5 -3.5t48.5 -5.5l14 -4q39 -6 39 -39v-174q0 -37 -39 -35q-43 4 -72 5q-94 0 -94 -91v-104h125q39 0 39 -39v-158q0 -39 -39 -39h-125v-749q0 -39 -39 -39h-199q-39 0 -39 39v749h-104q-39 0 -39 39zM1372 39v1376 q0 39 39 39h199q39 0 39 -39v-1376q0 -39 -39 -39h-199q-39 0 -39 39z" />
</font>
</defs>
</svg>
